<?xml version="1.0" encoding="utf-8"?>
<!-- Generator: Adobe Illustrator 16.0.1, SVG Export Plug-In . SVG Version: 6.00 Build 0)  -->
<!DOCTYPE svg PUBLIC "-//W3C//DTD SVG 1.1//EN" "http://www.w3.org/Graphics/SVG/1.1/DTD/svg11.dtd">
<svg version="1.1" id="Layer_1" xmlns="http://www.w3.org/2000/svg" xmlns:xlink="http://www.w3.org/1999/xlink" x="0px" y="0px"
	 width="802.938px" height="267.188px" viewBox="0 0 802.938 267.188" enable-background="new 0 0 802.938 267.188"
	 xml:space="preserve">
<g>
	<path fill="#671624" d="M143.738,67.991c-1.079-5.91-15.549-8.681-17.654-5.521c-1.234,1.854-3.476,67.383-3.721,72.747
		c-0.284,6.162-0.034,18.186,3.145,22.4c3.634,4.819,14.988,3.271,20.917,1.705c3.332-9.316,6.964-45.683,16.28-53.389
		c1.181,19.688-6.461,51.914,18.843,50.895c8.343-0.332,12.193-4.683,16.359-7.804c4.14,5.49,5.355,7.304,13.265,9.931
		c17.403,5.789,53.313,3.307,49.468-15.806c-3.371-16.753-51.94-31.147-35.173-53.641c2.598-3.479,11.414-7.332,16.754-3.821
		c0.721,0.479,7.882,9.766,14.598-0.131c2.882-4.238,6.24-13.764,2.034-18.217c-8.065-8.549-40.389-0.232-52.458,11.711
		c-11.379,11.264-7.938,22.938-0.134,34.744c-8.975,2.464-2.795,1.664-8.566,17.707c-2.553,7.09-5.711,13.832-13.991,12.476
		c-6.979-11.039-1.889-32.993-2.782-48.461c-0.523-9.108-4.039-19.991-14.611-16.996c-8.616,2.438-18.016,29.317-22.325,40.119
		C143.188,107.594,144.715,73.344,143.738,67.991z M208.45,116.532c5.742,6.584,27.823,19.838,30.404,27.77
		c3.445,10.59-10.78,10.705-17.509,7.053c-3.131-1.691-5.989-4.107-8.479-6.15c-4.687-3.85-5.166-2.541-9.538-4.857
		C206.396,131.575,208.089,127.385,208.45,116.532z"/>
	<path fill="#671624" d="M26.658,115.538c9.733-23.637-26.236-20.688-26.654,13.59c-0.424,34.865,25.812,43.86,55.777,42.055
		c54.309-3.279,51.451-53.161,51.451-96.307c0-16.369-0.048-32.744,0.009-49.111c0.102-30.618,0.892-22.559-21.628-25.412
		c-9.556-1.211-13.777,0.716-18.604,5.653c-28.641,29.3-35.865,111.048,17.721,108.821c1.235,14.188-8.356,28.483-14.951,34.375
		c-8.972,8.024-22.112,13.18-38.255,9.362c-17.083-4.043-21.465-20.198-15.788-28.923C19.116,124.454,24.022,121.927,26.658,115.538
		z M61.097,71.407C56.01,28.805,77.946,12.23,85.167,23.968c2.476,4.021-0.171,16.212-0.156,22.48
		c0.045,17.12,0.274,34.531-0.044,51.629C67.145,101.672,63,87.329,61.097,71.407z"/>
	<path fill="#671624" d="M274.334,3.02c-2.396,10.984-1.678,23.771-2.42,35.648c-0.573,9.17-2.887,6.496-11.977,6.627
		c-6.034,0.09-12.243-0.162-16.114,3.033c-0.469,10.728,19.346,9.453,26.533,12.438c0.552,29.113-6.229,63.041,3.647,89.645
		c3.713,10,14.155,23.875,28.967,17.465c11.402-4.935,15.411-19.676,19.529-28.195c7.69,25.91,7.74,25.453,28.387,29.49
		c15.253,2.975,22.951-17.146,27.39-29.49c2.243,5.438,1.614,7.91,5.314,13.105c2.235,3.149,5.581,6.799,10.924,8.112
		c12.479,3.084,18.079-6.39,23.12-12.062l0.983-0.976c4.187,18.521,14.695,18.654,25.544,21.068
		c15.422,3.434,18.306-13.669,24.243-21.08c-1.674,31.569,1.048,16.269-11.164,29.582c-3.151,3.446-6.332,5.922-9.248,9.694
		c-14.604,18.855-35.291,66.435-8.602,78.732c6.938,3.195,25.863,6.146,33.49,3c7.896-3.258,11.603-13.355,13.489-23.506
		c4.379-23.477,0.39-49.246,2.146-72.92c5.755-1.244,9.442,2.047,12.912-3.658c-0.591-6.422-7.013-6.422-13.013-6.791
		c-0.296-11.184-0.355-22.525,0.011-33.717c0.812-24.67,4.253-21.154,4.772-27.575c-2.173-1.973-1.806-1.331-5.079-2.403
		c-3.842-1.271-2.758-0.326-4.283-3.013c-2.941-6.862,4.862-19.979-2.854-30.386c-6.478-8.73-14.791-6.91-25.17-11.855
		c-22.131-10.539-31.842,12.432-35.895,31.049c-6.676,30.639,0.579,50.461-10.459,62.787c-9.97,11.127-13.852-8.031-14.265-16.822
		c-1.458-31.159,10.416-30.848-4.107-36.438c-2.24-14.838,2.368-25.521-7.973-35.081c-3.082-2.847-10.32-4.062-15.009-6.511
		c-5.247-2.729-11.446-4.349-18.481-2.937c-22.204,4.439-25.188,41.35-27.202,58.312c-0.918,7.729-1.548-1.979-5.553,15.821
		c-6.579,29.26-20.547,39.16-24.867,18.604c-2.166-10.296-1.703-73.239,1.171-81.853c2.026-2.644,24.017-3.938,28.794-3.842
		c5.163,0.088,6.242,1.811,7.649,0.373c8.812-11.771-30.535-9.711-36.46-11.695l2.604-35.944
		C291.133,5.125,281.837,2.904,274.334,3.02z M460.168,250.997c-3.646,5.434-12.344,10.651-17.628,3.114
		c-12.375-17.676,9.363-68.146,24.965-75.963C467.669,196.299,470.11,236.217,460.168,250.997z M452.815,67.633
		c9.74-3.332,14.072,5.863,15.312,14.4c1.637,11.236-3.116,16.102-3.596,26.603c-1.854,40.854-26.312,63.282-30.949,31.09
		C430.719,119.847,432.919,74.444,452.815,67.633z M360.151,69.518c14.31-3.398,16.757,15.977,16.052,21.701
		c-0.91,7.379-3.048-3.174-4.976,18.275c-0.983,10.953-2.556,29.151-7.722,38.834c-4.037,7.551-18.223,20.059-22.263-6.472
		C338.273,122.336,340.039,74.297,360.151,69.518z"/>
	<path fill="#671624" d="M499.271,120.48c-0.688,4.821-3.201,12.694-2.104,16.958c9.386,3.279,11.06-13.848,12.338-21.458
		c1.438-8.524,2.337-22.927,4.458-29.938c1.526-0.354,3.267-0.857,5.267-0.729c9.535,0.626,2.295,15.852,3.324,36.955
		c0.802,16.396,6.964,52.62,30.316,43.95c8.984-3.337,12.265-12.496,16.4-21.507c3.156,5.729,5,20.808,18.296,22.812
		c14.043,2.121,21.82,5.858,32.646-17.517c0.845-1.821,1.133-2.989,1.893-4.932c0.396-1.014,0.692-1.719,1.211-2.533
		c0.993-1.584,0.396-0.772,1.524-1.862c1.633,10.229,8.241,20.286,19.296,20.78c11.483,0.521,17.56-10.299,22.068-17.399
		c1.052,6.53-0.164,17.211,5.104,19.959c4.848,2.521,16.036,3.799,21.079,1.299c2.513-3.229,1.743-12,2.228-16.559
		c0.579-5.468,1.312-10.736,2.248-16.062c0.899-5.105,3.326-24.906,8.549-27.822c2.511,18.668-4.17,48.449,8.223,53.887
		c2.779,1.217,5.789,1.527,8.929,1.469c10.632-0.191,7.179-4.041,11.03-19.217c2.634-10.354,9.784-35.645,15.677-42.064
		c0.239,15.143-2.695,25.896,0.421,41.924c5.391,27.688,29.707,36.133,44.539,9.164c2.639-4.804,12.199-27.955,7.354-33.49
		c-7.79-8.053-7.193,18.627-14.85,29.418c-3.144,4.438-10.621,9.369-14.374,2.311c-2.438-4.584-3.145-13.107-3.312-19.107
		c-1.337-46.558,14.682-43.75-1.198-53.933c-6.266-4.021-10.014-4.79-18.593-3.571c-4.049,2.248-20.104,53.309-22.862,57.977
		c-0.837,1.416-0.477,0.82-1.266,1.652c-0.27-11.556-0.097-23.302-0.079-34.871c0.008-5.947,1.434-11.264-2.95-14.18
		c-3.562-2.369-9.229-3.152-14.146-2.195c-7.199,1.396-10.573,13.287-12.989,20.666c-1.536,4.694-6.921,22-7.374,25.449
		l-0.021-59.896c-2.731-4.188-14.616-5.658-19.779-3.927c-1.079,2.758-1.146,35.881-1.307,41.834
		c-0.229,9.016,0.716,13.969-1.821,19.633c-1.963,4.357-2.895,10.88-4.895,15.822c-5.948,14.687-15.906,14.188-18.154-3.627
		c-0.778-6.152-0.889-13.869-0.362-20.207c0.476-5.752,3.579-13.506,2.862-17.653c-2.883-3.312-3.347-2.295-7.146-4.879
		c-1.717-8.979,0.688-19.085-2.717-27.429c-4.188-10.279-8.26-8.236-17.76-12.41c-7.694-3.379-14.217-7.485-24.602-3.221
		c-7.561,3.1-10.851,8.318-14.485,15.668c-3.356,6.782-5.578,15.025-6.979,23.201c-1.23,7.254-1.549,21.223-3.295,26.803
		c-3.566,11.402-7.021,41.652-20.326,40.062c-7.645-7.156-6.526-26.464-5.502-38.021c0.604-6.814,1.531-13.223,2.995-19.647
		c1.271-5.554,4.735-12.806,4.452-18.217c-6.844-9.99-22.687-4.007-31.876-8.737c-0.505-5.717,0.514-9.482-0.831-14.934
		c-6.716-2.584-11.77,0.558-16.524,4.443c-0.416,12.969,1.474,26.409,1.053,39.899C500.371,107.358,500.188,114.022,499.271,120.48z
		 M586.455,112.758c1.126-13.834,4.38-38.871,19.411-43.125c12.929-3.652,16.689,12.559,16.291,20.818
		c-0.257,5.336-0.131,2.191-2.479,5.625c-5.132,7.479-0.3,50.649-17.58,59.973C583.797,165.915,585.477,124.706,586.455,112.758z"/>
</g>
</svg>
