<?xml version="1.0" encoding="utf-8"?>
<!-- Generator: Adobe Illustrator 16.0.1, SVG Export Plug-In . SVG Version: 6.00 Build 0)  -->
<!DOCTYPE svg PUBLIC "-//W3C//DTD SVG 1.1//EN" "http://www.w3.org/Graphics/SVG/1.1/DTD/svg11.dtd">
<svg version="1.1" id="Layer_1" xmlns="http://www.w3.org/2000/svg" xmlns:xlink="http://www.w3.org/1999/xlink" x="0px" y="0px"
	 width="802.938px" height="267.188px" viewBox="0 0 802.938 267.188" enable-background="new 0 0 802.938 267.188"
	 xml:space="preserve">
<g>
	<path fill="#43A3BB" d="M143.738,67.991c-1.079-5.91-15.549-8.68-17.654-5.521c-1.234,1.854-3.476,67.383-3.721,72.747
		c-0.284,6.162-0.034,18.186,3.145,22.4c3.634,4.82,14.988,3.271,20.917,1.705c3.332-9.316,6.964-45.682,16.28-53.388
		c1.181,19.687-6.461,51.914,18.843,50.894c8.343-0.332,12.193-4.682,16.359-7.803c4.14,5.49,5.355,7.303,13.265,9.93
		c17.403,5.789,53.313,3.307,49.468-15.805c-3.371-16.753-51.94-31.148-35.173-53.641c2.598-3.479,11.414-7.332,16.754-3.821
		c0.721,0.479,7.882,9.765,14.598-0.131c2.882-4.238,6.24-13.764,2.034-18.217c-8.065-8.549-40.389-0.232-52.458,11.711
		c-11.379,11.264-7.938,22.938-0.134,34.744c-8.975,2.464-2.795,1.664-8.566,17.707c-2.553,7.09-5.711,13.832-13.991,12.476
		c-6.979-11.039-1.889-32.993-2.782-48.461c-0.523-9.109-4.039-19.991-14.611-16.996c-8.616,2.438-18.016,29.317-22.325,40.119
		C143.188,107.594,144.715,73.344,143.738,67.991z M208.45,116.532c5.742,6.584,27.823,19.838,30.404,27.77
		c3.445,10.59-10.78,10.705-17.509,7.053c-3.131-1.692-5.989-4.108-8.479-6.151c-4.687-3.849-5.166-2.541-9.538-4.857
		C206.396,131.575,208.089,127.385,208.45,116.532z"/>
	<path fill="#43A3BB" d="M26.658,115.538c9.733-23.636-26.236-20.688-26.654,13.59c-0.424,34.865,25.812,43.86,55.777,42.055
		c54.309-3.279,51.451-53.161,51.451-96.307c0-16.369-0.048-32.744,0.009-49.111c0.102-30.618,0.892-22.559-21.628-25.412
		c-9.556-1.211-13.777,0.716-18.604,5.653c-28.641,29.3-35.865,111.048,17.721,108.821c1.235,14.189-8.356,28.484-14.951,34.375
		c-8.972,8.025-22.112,13.18-38.255,9.363c-17.083-4.043-21.465-20.199-15.788-28.923C19.116,124.454,24.022,121.927,26.658,115.538
		z M61.097,71.407C56.01,28.805,77.946,12.23,85.167,23.968c2.476,4.021-0.171,16.212-0.156,22.48
		c0.045,17.121,0.274,34.532-0.044,51.629C67.145,101.672,63,87.329,61.097,71.407z"/>
	<path fill="#43A3BB" d="M274.334,3.02c-2.396,10.984-1.678,23.771-2.42,35.648c-0.573,9.17-2.887,6.496-11.977,6.627
		c-6.034,0.09-12.243-0.162-16.114,3.033c-0.469,10.728,19.346,9.453,26.533,12.438c0.552,29.113-6.229,63.041,3.647,89.644
		c3.713,10,14.155,23.875,28.967,17.465c11.402-4.934,15.411-19.676,19.529-28.195c7.69,25.91,7.74,25.453,28.387,29.49
		c15.253,2.975,22.951-17.145,27.389-29.49c2.244,5.438,1.615,7.91,5.315,13.105c2.235,3.15,5.581,6.799,10.924,8.113
		c12.478,3.084,18.079-6.39,23.12-12.062l0.983-0.975c4.187,18.521,14.695,18.654,25.544,21.068
		c15.422,3.434,18.306-13.669,24.243-21.08c-1.674,31.569,1.048,16.268-11.164,29.582c-3.151,3.446-6.332,5.922-9.248,9.694
		c-14.603,18.856-35.291,66.435-8.601,78.733c6.937,3.195,25.863,6.146,33.49,3c7.896-3.258,11.602-13.356,13.489-23.506
		c4.379-23.477,0.39-49.246,2.146-72.92c5.754-1.244,9.442,2.047,12.912-3.658c-0.591-6.422-7.013-6.422-13.013-6.791
		c-0.296-11.184-0.355-22.526,0.011-33.717c0.812-24.67,4.253-21.154,4.772-27.575c-2.173-1.973-1.805-1.331-5.079-2.404
		c-3.842-1.27-2.758-0.326-4.283-3.012c-2.941-6.863,4.862-19.979-2.854-30.386c-6.477-8.731-14.791-6.91-25.17-11.856
		c-22.13-10.539-31.841,12.432-35.894,31.049c-6.676,30.639,0.579,50.461-10.459,62.787c-9.97,11.127-13.852-8.031-14.265-16.822
		c-1.458-31.159,10.416-30.848-4.107-36.438c-2.24-14.838,2.368-25.521-7.973-35.081c-3.082-2.847-10.32-4.062-15.009-6.511
		c-5.247-2.73-11.446-4.349-18.481-2.937c-22.204,4.44-25.187,41.35-27.202,58.312c-0.918,7.729-1.548-1.979-5.553,15.821
		c-6.579,29.26-20.547,39.16-24.867,18.605c-2.166-10.296-1.703-73.24,1.171-81.853c2.026-2.643,24.016-3.938,28.794-3.842
		c5.163,0.088,6.242,1.811,7.649,0.373c8.812-11.771-30.535-9.711-36.46-11.695l2.604-35.944
		C291.133,5.125,281.837,2.904,274.334,3.02z M460.168,250.997c-3.646,5.434-12.344,10.652-17.628,3.115
		c-12.375-17.676,9.363-68.146,24.965-75.963C467.669,196.299,470.11,236.217,460.168,250.997z M452.815,67.633
		c9.741-3.332,14.073,5.863,15.312,14.4c1.637,11.237-3.116,16.102-3.596,26.603c-1.854,40.854-26.312,63.282-30.949,31.09
		C430.719,119.847,432.919,74.444,452.815,67.633z M360.151,69.518c14.31-3.399,16.757,15.976,16.052,21.701
		c-0.91,7.379-3.048-3.174-4.975,18.275c-0.984,10.953-2.556,29.152-7.722,38.834c-4.037,7.551-18.223,20.059-22.263-6.471
		C338.273,122.336,340.039,74.297,360.151,69.518z"/>
	<path fill="#43A3BB" d="M499.271,120.48c-0.687,4.821-3.201,12.694-2.103,16.958c9.386,3.279,11.06-13.848,12.338-21.458
		c1.438-8.525,2.337-22.927,4.458-29.938c1.526-0.354,3.266-0.857,5.266-0.728c9.536,0.626,2.295,15.851,3.325,36.955
		c0.801,16.396,6.964,52.62,30.316,43.95c8.984-3.337,12.265-12.496,16.4-21.507c3.157,5.73,5.001,20.808,18.296,22.812
		c14.043,2.121,21.821,5.858,32.647-17.517c0.845-1.821,1.133-2.989,1.892-4.932c0.396-1.013,0.693-1.718,1.211-2.533
		c0.994-1.584,0.397-0.772,1.525-1.862c1.633,10.229,8.241,20.286,19.296,20.78c11.483,0.521,17.559-10.299,22.068-17.399
		c1.052,6.53-0.164,17.211,5.104,19.959c4.848,2.521,16.037,3.799,21.08,1.299c2.512-3.23,1.743-12,2.227-16.559
		c0.579-5.468,1.312-10.736,2.248-16.062c0.9-5.105,3.326-24.906,8.549-27.822c2.511,18.668-4.17,48.449,8.223,53.887
		c2.779,1.217,5.789,1.527,8.928,1.469c10.632-0.192,7.179-4.041,11.031-19.217c2.633-10.354,9.784-35.645,15.676-42.065
		c0.24,15.143-2.695,25.896,0.421,41.924c5.391,27.689,29.707,36.133,44.539,9.164c2.639-4.803,12.2-27.955,7.354-33.49
		c-7.79-8.053-7.194,18.627-14.85,29.418c-3.143,4.438-10.621,9.369-14.374,2.311c-2.438-4.584-3.144-13.108-3.312-19.108
		c-1.337-46.557,14.681-43.75-1.199-53.932c-6.265-4.021-10.013-4.79-18.592-3.572c-4.049,2.248-20.105,53.309-22.863,57.977
		c-0.837,1.416-0.476,0.82-1.265,1.652c-0.27-11.555-0.097-23.302-0.079-34.871c0.007-5.947,1.433-11.264-2.951-14.18
		c-3.561-2.369-9.229-3.152-14.146-2.195c-7.199,1.396-10.573,13.287-12.989,20.666c-1.537,4.694-6.921,22-7.374,25.449
		l-0.021-59.895c-2.731-4.189-14.616-5.658-19.779-3.927c-1.079,2.758-1.146,35.881-1.307,41.834
		c-0.229,9.016,0.716,13.969-1.821,19.633c-1.963,4.357-2.895,10.88-4.895,15.822c-5.948,14.687-15.906,14.188-18.154-3.627
		c-0.778-6.152-0.889-13.869-0.362-20.207c0.475-5.752,3.579-13.506,2.862-17.653c-2.883-3.312-3.347-2.295-7.146-4.879
		c-1.717-8.979,0.688-19.085-2.717-27.429c-4.188-10.279-8.26-8.236-17.76-12.41c-7.694-3.379-14.217-7.485-24.602-3.221
		c-7.56,3.1-10.85,8.319-14.485,15.668c-3.356,6.783-5.578,15.026-6.979,23.201c-1.231,7.254-1.549,21.223-3.295,26.803
		c-3.567,11.403-7.021,41.653-20.327,40.063c-7.644-7.157-6.526-26.464-5.501-38.022c0.604-6.814,1.531-13.222,2.995-19.647
		c1.271-5.554,4.735-12.806,4.452-18.217c-6.844-9.99-22.687-4.007-31.876-8.737c-0.505-5.717,0.513-9.483-0.831-14.934
		c-6.716-2.584-11.77,0.558-16.525,4.443c-0.416,12.969,1.474,26.41,1.053,39.9C500.371,107.358,500.188,114.022,499.271,120.48z
		 M586.455,112.758c1.126-13.834,4.38-38.871,19.411-43.125c12.929-3.652,16.69,12.559,16.291,20.818
		c-0.257,5.336-0.131,2.192-2.479,5.625c-5.132,7.479-0.3,50.65-17.58,59.973C583.797,165.915,585.477,124.706,586.455,112.758z"/>
</g>
</svg>
