<?xml version="1.0" encoding="utf-8"?>
<!-- Generator: Adobe Illustrator 16.0.1, SVG Export Plug-In . SVG Version: 6.00 Build 0)  -->
<!DOCTYPE svg PUBLIC "-//W3C//DTD SVG 1.1//EN" "http://www.w3.org/Graphics/SVG/1.1/DTD/svg11.dtd">
<svg version="1.1" id="Layer_1" xmlns="http://www.w3.org/2000/svg" xmlns:xlink="http://www.w3.org/1999/xlink" x="0px" y="0px"
	 width="273.391px" height="281.589px" viewBox="0 0 273.391 281.589" enable-background="new 0 0 273.391 281.589"
	 xml:space="preserve">
<path fill="#43A3BB" d="M0.001,196.98c24.822,15.914,54.305,25.199,85.979,25.199c103.169,0,159.585-85.467,159.585-159.586
	c0-2.433-0.057-4.852-0.162-7.256c10.958-7.908,20.468-17.787,27.987-29.035c-10.061,4.461-20.868,7.477-32.217,8.832
	c11.581-6.941,20.476-17.934,24.662-31.031c-10.837,6.427-22.841,11.095-35.617,13.611C219.989,6.812,205.411,0,189.28,0
	c-30.978,0-56.091,25.113-56.091,56.089c0,4.396,0.496,8.677,1.452,12.781C88.026,66.531,46.697,44.201,19.033,10.266
	c-4.828,8.284-7.595,17.919-7.595,28.198c0,19.459,9.902,36.627,24.952,46.686c-9.194-0.291-17.843-2.815-25.405-7.016
	c-0.004,0.233-0.005,0.469-0.005,0.705c0,27.177,19.334,49.847,44.993,55c-4.707,1.279-9.662,1.967-14.777,1.967
	c-3.614,0-7.128-0.354-10.553-1.006c7.139,22.282,27.853,38.5,52.396,38.952c-19.195,15.043-43.381,24.012-69.658,24.012
	C8.854,197.763,4.389,197.498,0.001,196.98z"/>
</svg>
