<?xml version="1.0" encoding="utf-8"?>
<!-- Generator: Adobe Illustrator 16.0.1, SVG Export Plug-In . SVG Version: 6.00 Build 0)  -->
<!DOCTYPE svg PUBLIC "-//W3C//DTD SVG 1.1//EN" "http://www.w3.org/Graphics/SVG/1.1/DTD/svg11.dtd">
<svg version="1.1" id="Layer_1" xmlns="http://www.w3.org/2000/svg" xmlns:xlink="http://www.w3.org/1999/xlink" x="0px" y="0px"
	 width="249.965px" height="249.965px" viewBox="0 0 249.965 249.965" enable-background="new 0 0 249.965 249.965"
	 xml:space="preserve">
<path fill="#202020" d="M124.92,2C57.044,2.021,1.977,57.145,2,125.044c0.023,67.877,55.145,122.944,123.045,122.921
	c67.876-0.023,122.942-55.145,122.92-123.046C247.943,57.043,192.819,1.978,124.92,2z"/>
<path fill="#FFFFFF" d="M220.265,150.276c-0.016,0.845-0.576,1.206-1.006,1.636c-7.492,7.517-15.047,14.98-22.479,22.569
	c-1.526,1.562-2.223,0.525-3.168-0.438c-14.574-14.578-29.161-29.15-43.732-43.73c-7.567-7.576-15.21-15.067-22.658-22.77
	c-1.822-1.865-2.696-1.474-4.295,0.134c-22.185,22.235-44.442,44.396-66.619,66.634c-1.679,1.68-2.606,1.902-4.375,0.074
	c-6.961-7.176-14.068-14.202-21.192-21.216c-1.289-1.266-1.451-2.014-0.072-3.393c31.082-31.009,62.13-62.049,93.134-93.133
	c1.332-1.334,1.998-1.043,3.139,0.104c30.639,30.698,61.308,61.353,91.965,92.03C219.407,149.277,219.867,149.824,220.265,150.276z"
	/>
</svg>
