<?xml version="1.0" encoding="utf-8"?>
<!-- Generator: Adobe Illustrator 16.0.1, SVG Export Plug-In . SVG Version: 6.00 Build 0)  -->
<!DOCTYPE svg PUBLIC "-//W3C//DTD SVG 1.1//EN" "http://www.w3.org/Graphics/SVG/1.1/DTD/svg11.dtd">
<svg version="1.1" id="Layer_1" xmlns="http://www.w3.org/2000/svg" xmlns:xlink="http://www.w3.org/1999/xlink" x="0px" y="0px"
	 width="2248.908px" height="972.053px" viewBox="0 0 2248.908 972.053" enable-background="new 0 0 2248.908 972.053"
	 xml:space="preserve">
<path fill-rule="evenodd" clip-rule="evenodd" d="M-684.252-53.424c1.167,0.765,2.334,1.529,3.502,2.294
	c-1.167,1.235-2.334,2.471-3.502,3.706C-684.252-49.424-684.252-51.424-684.252-53.424z"/>
<path fill-rule="evenodd" clip-rule="evenodd" d="M2216.178,1313.402c0.144,1.418,0.287,2.835,0.431,4.253
	c-0.417,0.08-0.835,0.16-1.252,0.24c-0.348-1.451-0.695-2.901-1.044-4.353C2214.935,1313.496,2215.556,1313.449,2216.178,1313.402z"
	/>
<g>
	<path fill-rule="evenodd" clip-rule="evenodd" d="M152.228,582.671c-0.036,0.675,1.065,1.413,2.591,3.301
		c3.707-14.12,7.274-27.138,10.525-40.232c4.565-18.387,8.721-36.875,13.397-55.232c2.454-9.636,5.964-19.003,8.416-28.64
		c2.453-9.642,4.1-19.486,6.244-29.21c4.939-22.39,10.599-44.643,14.799-67.169c5.478-29.372,9.661-58.982,14.708-88.438
		c4.662-27.212,9.661-54.366,14.646-81.522c2.338-12.739,4.964-25.427,7.523-38.124c0.59-2.93,0.888-6.129,2.336-8.613
		c1.311-2.249,4.069-5.178,6.074-5.093c2.246,0.096,5.758,2.915,6.273,5.121c1.568,6.706,3.46,13.899,2.526,20.523
		c-2.97,21.056-7.149,41.94-10.887,62.888c-3.618,20.281-7.333,40.545-10.877,60.84c-1.822,10.441-3.282,20.945-5.058,31.395
		c-1.55,9.123-4.549,18.006-2.801,27.573c0.557,3.046-1.179,6.459-1.545,9.739c-0.54,4.825-0.741,9.687-1.183,14.523
		c-0.377,4.127-0.665,8.281-1.395,12.352c-1.104,6.163-0.647,12.61-1.837,18.52c-2.166,10.751-2.319,21.529,1.503,31.165
		c4.253,10.72,6.466,21.568,8.169,32.729c0.428,2.805-0.438,6.232,4.22,7.572c0.941-1.885,2.294-3.753,2.85-5.834
		c5.045-18.917,12.199-37.137,15.285-56.755c3.028-19.259,9.286-38.019,14.309-56.949c1.872-7.056,3.775-14.172,6.522-20.911
		c4.027-9.877,10.344-10.217,16.902-1.704c9.018,11.704,9.259,25.447,8.633,39.022c-0.934,20.256-2.961,40.462-4.529,60.688
		c-0.333,4.308-0.967,8.612-0.988,12.921c-0.068,13.838-0.916,27.783,0.537,41.474c0.842,7.931,1.793,17.258,10.477,23.184
		c6.824-6.156,9.313-14.241,12.583-21.627c13.084-29.552,19.469-60.707,21.726-92.862c0.691-9.851,2.342-19.667,4.152-29.388
		c0.565-3.037,2.619-6.178,4.839-8.438c3.363-3.425,8-2.339,9.392,2.341c2.47,8.303,6.625,15.702,3.834,25.767
		c-3.562,12.841-3.26,26.731-4.907,40.135c-0.603,4.897-2.004,9.697-3.069,14.534c-0.354,1.608-1.227,3.223-1.133,4.79
		c1.084,18.163,0.006,36.571,5.874,54.214c0.841,2.527,1.48,5.172,2.689,7.518c2.313,4.486,6.033,5.807,10.885,4.035
		c7.529-2.748,13.055-8.268,17.291-14.629c8.647-12.988,17.03-26.194,24.679-39.786c3.504-6.226,6.299-13.412,7.187-20.444
		c2.757-21.83,6.428-43.456,11.968-64.727c2.258-8.671,5.543-17.08,8.512-25.556c1.755-5.009,3.818-9.908,5.71-14.869
		c0.474-1.242,0.652-2.621,1.26-3.784c2.108-4.037,5.08-7.452,9.973-7.059c4.756,0.383,6.326,4.55,7.202,8.514
		c0.557,2.516,0.522,5.273,0.202,7.854c-1.269,10.236-2.319,20.528-4.25,30.647c-3.857,20.217-7.58,40.512-16.03,59.512
		c-0.947,2.13-1.838,4.294-2.596,6.496c-4.793,13.94-4.835,27.747,0.933,42.083c5.685-2.49,7.077-7.614,9.102-11.798
		c5.794-11.976,11.078-24.2,16.466-36.37c0.936-2.112,1.474-4.413,2.075-6.659c4.896-18.287,9.224-36.75,14.844-54.812
		c3.442-11.065,8.78-21.551,13.43-32.226c1.368-3.139,3.528-5.896,7.515-5.498c4.157,0.416,5.473,3.96,5.836,7.161
		c0.741,6.537,1.9,13.368,0.762,19.695c-1.639,9.1-5.181,17.855-7.896,26.762c-0.774,2.54-1.574,5.074-2.233,7.645
		c-1.865,7.275-1.354,14.931-4.714,22.098c-1.644,3.505-0.327,8.42-0.254,12.695c0.022,1.281,0.952,2.853,0.478,3.791
		c-4.953,9.793-0.408,19.69-0.274,29.497c0.031,2.314,2.48,5.595,4.647,6.549c1.587,0.699,5.165-1.095,6.733-2.808
		c3.118-3.403,6.23-7.192,8-11.39c10.065-23.866,20.924-47.384,25.523-73.291c2.894-16.298,8.073-32.19,12.267-48.254
		c0.247-0.946,0.623-2.071,1.322-2.649c2.688-2.223,5.363-5.665,8.359-6.027c4.455-0.538,5.255,4.328,6.246,7.771
		c3.61,12.534-0.697,24.36-3.676,36.229c-3.222,12.839-7.348,25.467-10.173,38.386c-2.45,11.2-4.052,22.636-5.186,34.052
		c-0.513,5.163,0.583,10.625,1.714,15.785c2.373,10.825,11.389,14.047,19.191,6.211c8.409-8.443,16.198-17.677,23.162-27.354
		c17.985-24.997,29.698-53.398,42.756-81.06c4.256-9.015,8.943-17.837,13.75-26.572c1.703-3.096,3.784-6.775,8.439-5.515
		c4.769,1.291,5.832,5.348,5.589,9.477c-0.347,5.886-0.517,11.981-2.205,17.55c-4.425,14.589-8.837,29.278-14.789,43.275
		c-4.458,10.482-6.932,20.706-4.837,31.839c0.514,2.733,1.615,7.023,3.299,7.484c2.626,0.72,6.621-0.417,8.882-2.216
		c3.847-3.061,7.255-6.935,10.039-11.019c9.173-13.452,18.504-26.843,26.787-40.842c8.452-14.286,15.672-29.299,23.583-43.911
		c1.885-3.479,4.004-6.975,6.675-9.85c4.101-4.414,10.265-2.71,11.183,3.203c0.646,4.164,0.443,8.726-0.558,12.821
		c-1.733,7.087-3.841,14.187-6.751,20.862c-7.196,16.508-8.234,34.109-10.004,51.598c-0.283,2.799,0.338,5.688,0.556,8.754
		c1.886-0.139,3.163,0.166,3.732-0.335c10.083-8.866,18.94-18.512,23.118-31.832c6.264-19.975,11.846-40.297,19.981-59.514
		c8.006-18.909,18.675-36.708,28.51-54.813c3.323-6.119,7.513-11.795,11.593-17.468c3.909-5.438,8.706-9.898,15.457-12.038
		c4.805,3.68,6.166,8.499,5.658,13.495c-0.872,8.577-1.676,17.303-3.947,25.57c-6.189,22.522-15.387,43.942-26.236,64.594
		c-3.843,7.315-8.703,14.119-13.369,20.974c-5.42,7.964-11.173,15.701-16.695,23.598c-1.136,1.623-2.23,3.415-2.771,5.294
		c-3.74,13.004-7.838,26.094-5.78,39.802c1.022,6.814,2.963,13.779,5.993,19.936c4.21,8.556,10.102,9.79,17.887,4.32
		c4.271-3.002,8.349-6.812,11.281-11.101c19.967-29.208,35.638-60.65,48.614-93.559c9.308-23.602,17.469-47.543,22.62-72.347
		c5.412-26.06,10.477-52.237,14.288-78.566c2.758-19.046,3.622-38.405,4.513-57.662c0.36-7.802-1.454-15.705-2.41-24.823
		c-12.825,2.923-15.418,17.174-26.766,19.663c-4.271-4.137-4.643-9.227-2.276-13.757c4.629-8.862,10.202-17.229,18.518-23.234
		c8.205-5.925,15.117-4.687,19.744,4.374c2.988,5.851,5.129,12.313,6.551,18.744c2.971,13.432,2.255,27.094,1.066,40.706
		c-3.654,41.854-11.453,83.028-20.371,124.021c-8.173,37.565-20.736,73.686-37.947,107.96
		c-12.947,25.782-26.633,51.34-46.588,72.791c-4.071,4.376-8.629,7.097-14.512,7.952c-13.052,1.897-24.629-3.926-30.568-17.032
		c-3.663-8.082-5.644-16.938-8.195-25.503c-0.816-2.74-1.041-5.656-1.872-10.409c-3.05,2.73-5.009,4.162-6.569,5.941
		c-4.801,5.475-9.937,9.968-17.992,7.58c-8.104-2.401-11.237-8.969-12.874-16.314c-0.932-4.18-0.663-8.618-1.062-12.929
		c-0.232-2.515-0.716-5.006-1.332-9.162c-2.937,2.947-4.968,4.506-6.392,6.499c-5.209,7.291-9.841,15.025-15.416,22.014
		c-4.508,5.649-9.55,11.138-15.272,15.491c-8.146,6.196-17.298,5.548-24.298-1.963c-5.271-5.656-8.993-12.758-13.776-19.76
		c-0.475,0.412-2.007,1.195-2.715,2.444c-9.08,16.045-21.839,29.288-32.997,43.752c-6.858,8.889-15.429,14.545-26.562,12.216
		c-11.377-2.38-19.465-9.779-22.863-21.439c-0.365-1.253-0.872-2.465-1.742-4.896c-2.073,1.819-4.012,2.896-5.038,4.542
		c-2.813,4.511-5.021,9.404-7.877,13.885c-4.516,7.086-10.274,12.136-19.613,11.052c-9.317-1.08-16.517-5.096-20.013-14.077
		c-2.113-5.429-3.511-11.136-5.704-18.259c-2.43,3.055-4.325,4.786-5.417,6.927c-4.212,8.257-8.312,16.577-12.184,24.999
		c-6.105,13.282-21.357,15.618-30.744,4.428c-2.701-3.221-4.8-6.947-8.066-11.753c-5.297,7.504-9.979,14.185-14.712,20.831
		c-5.946,8.352-11.402,17.124-18.01,24.919c-14.13,16.669-35.552,8.114-43.102-6.345c-3.942-7.549-6.999-15.561-11.106-24.829
		c-2.505,5.104-4.608,9.346-6.671,13.606c-2.027,4.191-4.285,8.297-5.961,12.627c-3.677,9.5-13.496,14.495-23.132,11.289
		c-9.831-3.271-16.589-9.561-19.104-19.938c-5.439-22.442-7.808-45.063-5.494-68.188c1.253-12.527,1.17-25.185,1.866-37.773
		c0.269-4.873,1.023-9.719-0.138-14.991c-1.485,5.528-3.08,11.029-4.428,16.591c-1.55,6.392-2.681,12.889-4.346,19.248
		c-5.136,19.614-10.39,39.198-15.709,58.764c-1.373,5.053-3.346,9.943-4.691,15.003c-1.549,5.82-9.131,13.163-14.455,13.545
		c-4.096,0.295-10.56-5.113-12.877-11.152c-5.897-15.363-8.386-31.446-10.185-47.718c-0.855-7.738-2.688-15.368-4.078-23.048
		c-0.751-0.022-1.503-0.045-2.254-0.067c-1.537,5.296-3.309,10.537-4.572,15.897c-6.408,27.188-12.886,54.362-18.949,81.628
		c-5.99,26.938-11.508,53.979-17.252,80.972c-0.829,3.9-1.288,8.489-6.155,9.255c-4.69,0.738-6.821-3.273-9.097-6.56
		c-1.426-2.06-2.929-4.065-5.265-7.296c-0.808,8.366-1.519,15.125-2.098,21.895c-0.696,8.127,0.365,16.142-2.754,24.381
		c-2.987,7.895-3.048,16.96-3.98,25.556c-1.678,15.452-2.993,30.944-4.572,46.408c-0.569,5.583-1.73,11.113-2.15,16.702
		c-0.969,12.877-2.455,25.791-2.198,38.66c0.223,11.157,2.258,22.322,4.071,33.389c1.003,6.121,1.54,6.033-4.052,12.713
		c-7.009-4.523-10.695-10.855-12.334-19.095c-5.544-27.874-1.788-55.683,0.825-83.366c3.812-40.366,8.783-80.627,13.575-120.895
		c2.591-21.773,5.906-43.461,8.765-65.204c2.554-19.426,4.864-38.884,7.398-58.312c4.084-31.313,8.454-62.59,12.336-93.928
		c2.741-22.122,4.951-44.312,7.26-66.485c3.203-30.767,6.335-61.541,9.344-92.326c0.45-4.607,0.062-9.296,0.062-13.947
		c-0.523-0.182-1.047-0.363-1.569-0.545c-2.045,10.035-4.063,20.075-6.139,30.104c-6.876,33.226-13.363,66.538-20.835,99.629
		c-3.656,16.191-10.438,31.723-13.523,47.986c-4.795,25.274-15.211,48.763-21.296,73.578c-2.717,11.078-13.504,18.307-24.732,17.56
		c-5.203-0.346-9.488-2.52-13.185-6.298c-11.23-11.479-17.131-25.422-17.777-41.186c-0.896-21.855-0.769-43.752-1.209-65.627
		c-0.334-16.543-0.834-33.083-1.372-49.62c-0.057-1.74-0.866-3.457-3.124-5.24c-1.328,6.181-2.999,12.312-3.919,18.553
		c-2.856,19.382-5.438,38.806-8.106,58.216c-3.288,23.93-6.588,47.857-9.823,71.793c-3.143,23.256-6.328,46.507-9.21,69.795
		c-0.606,4.898,0.46,9.993-0.03,14.919c-0.485,4.891-1.611,9.794-3.106,14.484c-1.382,4.337-5.425,5.624-9.562,6.055
		c-4.381,0.457-5.896-3.26-6.813-6.151c-1.254-3.954-2.109-8.422-1.604-12.479c2.093-16.814,4.529-33.595,7.285-50.314
		c2.646-16.052,5.976-31.988,8.757-48.019c3.006-17.326,5.889-34.677,8.528-52.061c3.438-22.649,6.6-45.341,9.852-68.019
		c2.361-16.472,4.677-32.949,7.012-49.424c1.863-13.143,3.682-26.291,5.626-39.421c0.338-2.281,0.908-4.623,1.888-6.692
		c2.079-4.396,7.914-5.763,11.214-0.905c5.657,8.329,10.614,15.952,8.887,27.347c-1.605,10.591,0.389,21.723,0.757,32.617
		c0.168,4.98,0.333,9.965,0.338,14.947c0.024,23.276-0.496,46.566,0.127,69.826c0.552,20.588,1.843,41.193,3.913,61.68
		c0.627,6.196,4.205,12.509,7.766,17.884c4.009,6.05,9.858,5.572,13.39-0.945c5.378-9.928,11.021-19.945,14.556-30.588
		c7.11-21.41,13.385-43.136,19.066-64.975c7.535-28.969,14.527-58.092,21.056-87.305c3.552-15.89,5.358-32.16,8.49-48.154
		c4.715-24.085,9.924-48.072,14.878-72.11c2.408-11.679,4.627-23.396,7.12-35.057c0.825-3.86,1.645-8.321,6.558-8.993
		c4.193-0.573,6.477,2.449,8.499,5.778c3.321,5.467,5.214,10.915,4.861,17.665c-0.582,11.141,1.059,22.433,0.037,33.502
		L152.228,582.671z M806.841,300.427c-9.326,12.086-20.816,36.091-20.624,42.11C792.084,338.206,803.324,315.777,806.841,300.427z"
		/>
	<path fill-rule="evenodd" clip-rule="evenodd" d="M1665.106,536.729c-11.187,5.662-21.42,13.272-31.794,20.426
		c-2.236,1.543-3.561,4.718-4.775,7.383c-10.333,22.667-20.633,45.351-30.753,68.113c-4.591,10.327-8.459,20.979-13.173,31.246
		c-7.627,16.612-15.834,32.959-23.508,49.551c-6.277,13.571-12.125,27.34-18.188,41.01c-0.808,1.82-1.75,3.581-2.651,5.359
		c-10.809,21.349-21.432,42.793-32.507,64.002c-6.304,12.072-13.146,23.878-20.107,35.587c-8.991,15.12-17.927,30.303-27.659,44.943
		c-9.714,14.611-19.605,29.247-30.921,42.6c-6.928,8.177-16.121,14.85-25.288,20.626c-17.384,10.953-33.745-0.276-41.847-11.331
		c-13.053-17.809-17.344-38.253-17.379-60.191c-0.036-23.158,3.559-45.734,9.623-67.807c4.034-14.681,10.135-28.892,16.336-42.857
		c12.366-27.849,29.381-52.918,49.05-76.039c12.911-15.177,26.72-29.64,40.786-43.766c12.906-12.962,26.42-25.359,40.179-37.42
		c12.243-10.731,24.948-20.978,37.889-30.863c15.028-11.48,30.414-22.51,45.888-33.389c7.582-5.331,15.636-10.012,23.616-14.75
		c10.706-6.357,17.606-15.176,21.968-27.113c6.959-19.049,15.729-37.426,23.308-56.259c6.936-17.234,13.435-34.649,19.896-52.069
		c9.141-24.644,18.738-49.146,26.932-74.104c12.447-37.915,23.864-76.168,35.691-114.286c0.461-1.482,0.646-3.05-0.616-5.532
		c-2.37,2.91-4.694,5.859-7.119,8.724c-18.302,21.613-34.936,44.437-49.679,68.621c-6.801,11.156-15.9,20.206-25.048,29.434
		c-12.679,12.79-28.058,21.364-43.658,29.246c-12.138,6.132-25.654,8.721-39.784,5.829c-16.841-3.446-38.638-25.552-40.424-49.703
		c-0.218-2.945-0.867-5.865-1.462-8.768c-0.095-0.463-0.963-0.769-2.554-1.948c-1.941,2.854-3.962,5.671-5.822,8.589
		c-8.209,12.878-15.86,26.147-24.68,38.59c-11.336,15.996-21.911,13.891-33.262-1.049c-2.928-3.854-4.238-8.954-6.186-13.526
		c-0.729-1.714-1.157-3.556-2.146-6.675c-1.928,2.637-3.233,3.983-4.032,5.583c-11.135,22.294-22.209,44.616-33.273,66.944
		c-2.565,5.176-6.128,8.754-12.438,8.06c-6.416-0.706-10.227-4.581-11.948-10.511c-1.277-4.4-2.093-8.935-3.155-13.592
		c-4.555,0.091-5.31,3.308-6.812,5.675c-7.666,12.072-15.756,23.898-22.891,36.276c-7.498,13.008-24.573,11.897-33.576,3.335
		c-10.481-9.97-14.02-22.493-14.474-36.009c-0.299-8.881,1.314-17.827,2.089-26.742c0.193-2.229,0.453-4.453-0.735-7.316
		c-3.244,4.783-6.824,9.375-9.671,14.385c-10.195,17.933-21.861,34.816-34.869,50.82c-7.324,9.012-13.786,18.769-21.546,27.369
		c-6.39,7.083-13.71,13.505-21.371,19.207c-6.984,5.199-16.229,3.588-21.256-3.564c-3.326-4.734-5.985-10.51-7.017-16.171
		c-2.681-14.712-0.188-29.337,4.319-43.336c8.257-25.644,17.639-50.925,25.94-76.556c6.558-20.243,12.29-40.757,18.17-61.213
		c1.184-4.118,1.751-8.592-2.814-12.512c-1.777,0.773-3.943,1.396-5.763,2.561c-13.055,8.354-24.294,18.634-32.79,31.703
		c-9.783,15.049-20.236,29.725-29.06,45.319c-12.103,21.393-23.088,43.425-34.263,65.33c-4.945,9.695-9.371,19.67-13.673,29.673
		c-3.146,7.312-6.151,14.753-8.282,22.398c-0.768,2.752,0.417,6.774,2.08,9.326c3.451,5.297,2.847,10.034-0.207,14.913
		c-2.29,3.659-4.328,7.637-7.295,10.676c-5.01,5.135-10.147,3.753-13.186-2.756c-3.355-7.188-4.553-14.42-2.336-22.277
		c5.598-19.84,10.53-39.874,16.451-59.614c6.084-20.281,12.863-40.358,19.626-60.428c8.92-26.473,17.896-52.93,27.259-79.247
		c11.702-32.896,23.989-65.583,35.708-98.474c8.918-25.031,17.244-50.272,26.031-75.353c4.401-12.563,9.116-25.023,13.926-37.438
		c3.596-9.282,7.542-18.431,11.401-27.609c0.769-1.828,1.425-4.189,2.889-5.133c2.575-1.66,5.824-3.525,8.628-3.298
		c4.501,0.366,4.393,5.123,3.641,7.979c-2.275,8.64-4.992,17.211-8.239,25.536c-5.063,12.984-11.169,25.572-15.993,38.639
		c-7.604,20.598-14.204,41.567-21.819,62.161c-5.418,14.651-12.142,28.816-17.675,43.429c-6.689,17.668-12.776,35.565-19.05,53.389
		c-3.828,10.876-7.518,21.801-11.27,32.703c0.578,0.333,1.156,0.666,1.733,1c2.299-3.412,4.806-6.704,6.862-10.256
		c17.323-29.917,33.872-60.293,53.657-88.729c17.849-25.654,35.138-51.705,53.403-77.056c9.307-12.917,20.013-24.858,30.502-36.877
		c4.341-4.974,9.528-9.312,14.784-13.35c4.369-3.355,11.466-1.952,14.273,2.055c2.135,3.048,1.114,7.969-2.579,11.685
		c-8.391,8.445-16.837,16.835-25.252,25.257c-0.469,0.47-0.856,1.021-1.271,1.543c-16.894,21.291-35.174,41.491-50.194,64.254
		c-12.05,18.261-24.637,36.178-36.304,54.678c-9.523,15.101-18.039,30.838-26.979,46.321c-1.71,2.422-3.442,4.815-5.176,7.209
		c0.704,0.334,1.407,0.669,2.111,1.004c0.965-2.827,1.929-5.655,2.894-8.482c2.613-1.267,5.498-2.17,7.779-3.88
		c3.986-2.986,7.376-6.786,11.428-9.664c5.132-3.644,10.375-7.402,16.104-9.874c11.641-5.021,18.298-1.605,21.796,10.524
		c3.247,11.258,1.088,22.594-1.021,33.614c-2.365,12.368-5.797,24.584-9.545,36.623c-5.229,16.791-10.248,33.751-17.08,49.91
		c-7.129,16.861-13.87,33.762-17.745,51.624c-1.745,8.042-2.2,16.428-2.574,24.688c-0.377,8.331,5.745,12.036,12.318,6.918
		c6.98-5.435,13.304-12.018,18.821-18.966c12.194-15.356,24.343-30.826,35.3-47.065c9.661-14.319,18.354-29.399,26.271-44.764
		c12.78-24.798,24.639-50.073,36.727-75.224c2.444-5.087,4.146-10.528,6.253-15.781c0.74-1.847,1.201-4.231,2.604-5.291
		c2.481-1.874,5.563-3.996,8.438-4.061c4.271-0.095,4.652,4.088,4.812,7.451c0.332,7.01-0.215,13.73-3.109,20.474
		c-7.477,17.412-13.864,35.215-16.8,54.11c-0.751,4.833-2.689,9.593-4.728,14.093c-4.998,11.035-8.477,22.201-7.422,34.612
		c0.587,6.896-0.559,13.928-0.222,20.863c0.24,4.942,1.118,10.002,2.655,14.701c2.735,8.359,10.496,10.158,15.979,3.354
		c6.438-7.991,12.133-16.639,17.591-25.352c16.398-26.175,25.729-55.416,35.851-84.28c6.614-18.86,12.953-37.806,23.135-55.159
		c0.841-1.433,1.157-3.51,2.366-4.32c2.646-1.775,6.013-4.407,8.507-3.892c2.193,0.453,4.322,4.49,5.203,7.34
		c1.88,6.082-0.273,11.736-3.216,17.176c-17.798,32.905-28.489,68.024-32.365,105.207c-0.432,4.136-0.059,8.355-0.059,12.536
		c0.753,0.241,1.506,0.481,2.259,0.723c1.592-1.8,3.667-3.358,4.701-5.437c11.841-23.793,23.921-47.495,32.856-72.595
		c5.903-16.579,11.516-33.263,17.196-49.92c2.969-8.706,4.384-9.861,13.909-10.15c3.036,7.346,3.369,15.313,2.005,23.012
		c-1.436,8.101-4.663,15.865-6.635,23.893c-3.624,14.755-0.506,29.18,3.432,43.312c1.706,6.124,6.36,6.827,10.331,1.659
		c6.679-8.695,13.048-17.702,18.724-27.076c8.443-13.947,16.084-28.378,24.268-42.487c1.809-3.12,4.047-6.282,6.842-8.453
		c2.338-1.815,6.289-3.656,8.589-2.842c2.411,0.854,4.98,4.747,5.221,7.509c0.48,5.524,0.188,11.375-1.153,16.75
		c-3.774,15.113-2.986,30.27,2.929,44.083c5.338,12.468,17.11,22.224,34.418,20.252c14.23-1.621,27.022-7.117,38.798-14.937
		c20.52-13.625,36.617-31.128,49.994-52.107c14.258-22.36,29.089-44.577,47.003-64.42c5.777-6.398,10.991-13.303,16.557-19.896
		c2.146-2.541,4.224-5.351,6.923-7.155c3.14-2.099,7.139-4.841,10.384-4.414c5.257,0.692,4.438,6.535,5.427,10.61
		c2.442,10.064-1.199,19.561-2.895,29.171c-1.669,9.466-4.264,18.61-9.066,27.305c-4.261,7.713-6.658,16.52-9.299,25.023
		c-0.805,2.592,0.309,5.778,0.43,7.279c-2.707,4.642-5.514,8.014-6.79,11.89c-5.585,16.958-10.649,34.088-16.1,51.092
		c-0.99,3.089-3.211,5.77-4.338,8.832c-6.427,17.466-12.549,35.044-19.055,52.479c-7.081,18.979-14.319,37.903-21.764,56.743
		c-6.963,17.62-14.323,35.083-21.398,52.658c-0.807,2.004-0.909,4.292-1.619,7.867c3.229-0.842,5.468-0.96,7.208-1.952
		c15.901-9.064,31.638-18.421,47.601-27.374c5.19-2.911,11.046-4.612,16.354-7.34c15.96-8.203,31.768-16.701,47.706-24.945
		c4.424-2.288,9.137-4.011,13.653-6.128c19.833-9.297,39.505-18.951,59.51-27.861c13.324-5.935,27.143-10.751,40.683-16.211
		c33.312-13.432,66.618-26.885,99.876-40.454c18.436-7.521,36.63-15.649,55.185-22.858c20.751-8.062,41.862-15.192,62.675-23.102
		c20.498-7.791,40.736-16.266,61.238-24.045c21.44-8.134,43.061-15.795,64.601-23.667c4.999-1.827,9.963-3.755,14.998-5.476
		c2.346-0.802,4.824-1.219,9.363-2.328c-1.304,4.173-1.312,7.569-2.828,8.493C1713.812,486.026,1665.106,536.729,1665.106,536.729z
		 M1605.593,575.481c-10.356,7.534-21.322,9.993-28.621,18.771c-2.27,2.729-5.423,5.296-8.698,6.489
		c-5.437,1.979-10.055,4.449-14.075,8.827c-3.739,4.071-8.151,8.581-13.149,10.242c-14.911,4.956-21.484,20.367-35.13,26.593
		c-0.556,0.254-0.87,0.994-1.363,1.433c-3.389,3.015-6.763,6.045-10.204,8.999c-2.769,2.377-5.879,4.409-8.382,7.03
		c-3.882,4.067-7.009,8.906-11.132,12.681c-4.821,4.415-10.797,7.594-15.5,12.111c-7.182,6.898-13.772,14.42-20.488,21.793
		c-15.44,16.951-28.844,35.496-41.271,54.684c-15.998,24.703-28.494,50.929-30.218,81.004c-0.416,7.255,0.212,14.564,0.041,21.841
		c-0.297,12.602-0.897,25.196-1.225,37.798c-0.05,1.948,0.483,3.979,1.078,5.866c3.783,12.019,7.111,24.133,15.483,34.226
		c5.694,6.864,11.524,9.075,18.827,3.952c6.48-4.548,12.621-9.812,18.069-15.559c20.037-21.134,34.857-46.116,50.178-70.599
		c10.562-16.88,19.582-34.75,28.832-52.417c8.784-16.774,17.233-33.737,25.358-50.841c12.414-26.131,24.517-52.41,36.566-78.712
		c7.479-16.326,14.662-32.789,21.896-49.228c7.233-16.439,14.394-32.912,21.495-49.408
		C1604.673,581.404,1604.758,579.48,1605.593,575.481z"/>
	<path fill-rule="evenodd" clip-rule="evenodd" d="M1041.372,414.872c2.819,9.53,1.114,15.854-1.373,21.995
		c-4.737,11.694-9.636,23.324-14.565,34.939c-1.164,2.744-2.623,5.378-4.106,7.972c-13.776,24.095-30.841,45.814-50.318,65.377
		c-13.652,13.712-37.92,20.69-56.879,8.61c-7.887-5.025-13.075-12.386-17.097-20.368c-7.757-15.398-10.943-32.012-11.166-49.226
		c-0.312-24.086,2.998-47.779,7.15-71.435c5.355-30.51,13.426-60.349,21.266-90.265c6.66-25.414,12.5-51.047,19.35-76.409
		c8.671-32.106,17.994-64.038,27.043-96.043c2.718-9.611,5.793-19.14,8.012-28.865c0.829-3.637,0.224-7.855-0.676-11.579
		c-1.877-7.771-1.698-10.014,5.085-14.215c3.812-2.362,5.494-5.396,6.673-9.356c2.466-8.287,5.152-16.509,7.83-24.731
		c0.718-2.203,1.661-4.341,2.623-6.453c1.627-3.573,4.246-6.86,8.297-5.497c2.627,0.885,5.228,3.87,6.434,6.548
		c2.787,6.193,3.55,12.781,0.61,19.348c-0.497,1.109-0.556,2.416-1.095,4.925c3.009-0.944,5.27-1.167,6.963-2.265
		c10.318-6.692,20.695-13.323,30.694-20.475c12.443-8.9,24.306-18.625,36.874-27.337c7.817-5.419,16.564-9.478,24.726-14.426
		c5.111-3.1,9.773-6.941,14.892-10.026c3.451-2.08,7.347-3.423,12.191-5.615c-0.461,8.71-5.572,12.36-9.851,16.101
		c-13.511,11.812-26.997,23.704-41.161,34.705c-17.336,13.464-35.266,26.173-53.106,38.975c-8.35,5.991-17.01,11.566-25.69,17.075
		c-5.386,3.418-8.406,8.1-10.238,14.153c-6.65,21.971-13.29,43.955-20.619,65.704c-3.238,9.608-8.663,18.466-12.114,28.019
		c-4.286,11.861-7.826,24.015-11.208,36.176c-7.215,25.946-14.246,51.945-21.108,77.987c-4.65,17.65-8.942,35.396-13.254,53.135
		c-0.78,3.208-0.799,6.596-1.312,9.878c-0.549,3.52-0.97,7.098-1.962,10.5c-3.183,10.909-6.289,21.902-3.644,33.291
		c1.502,6.466-2.096,11.966-1.989,18.07c0.051,2.951-0.935,5.953-0.673,8.862c1.094,12.163,1.405,24.546,4.092,36.373
		c2.322,10.229,6.418,20.414,11.619,29.542c7.074,12.417,20.616,14.682,33.807,6.345c7.245-4.578,14.106-10.098,20.154-16.174
		c22.562-22.667,39.512-49.196,52.367-78.417c2.66-6.046,5.355-12.11,8.594-17.851
		C1034.911,419.97,1037.731,418.291,1041.372,414.872z"/>
	<path fill-rule="evenodd" clip-rule="evenodd" d="M1113.831,101.771c4.56-13.138,8.688-25.733,13.45-38.085
		c0.833-2.16,4.187-4.316,6.633-4.664c3.873-0.55,5.885,2.644,6.347,6.272c0.544,4.279,1.329,8.658,0.946,12.898
		c-0.834,9.261-1.979,18.527-3.646,27.674c-3.807,20.899-7.746,41.782-12.121,62.568c-3.618,17.189-7.921,34.235-11.955,51.337
		c-1.525,6.466-3.15,12.908-4.723,19.363c-4.321,17.745-8.435,35.545-13.015,53.223c-4.33,16.71-9.148,33.293-13.756,49.931
		c-0.089,0.319-0.377,0.651-0.326,0.933c2.554,14.127-7.764,24.834-10.055,37.774c-2.425,13.694-6.11,27.218-10.067,40.572
		c-2.843,9.595-6.212,18.976-6.211,29.125c0,3.956,0.389,7.923,0.186,11.864c-0.153,2.963-0.967,5.892-1.603,9.494
		c-8.719-3.348-9.803-9.642-9.837-15.931c-0.032-5.902,1.109-11.807,1.66-17.718c2.138-22.957,9.412-44.812,14.698-67.069
		c4.912-20.68,11.525-40.949,16.827-61.544c9.699-37.68,19.126-75.432,28.357-113.229c2.836-11.612,4.694-23.465,6.95-35.218
		c2.872-14.964,5.696-29.938,8.533-44.909c0.247-1.307,0.445-2.624,0.643-3.94C1122.89,104.889,1122.887,104.889,1113.831,101.771z"
		/>
	<path fill-rule="evenodd" clip-rule="evenodd" d="M1039.921,217.74c0.644,13.893-2.037,24.891-6.918,34.996
		c-4.729,9.792-10.526,19.21-16.901,28.036c-11.719,16.224-25.31,30.731-42.794,41.063c-7.147,4.224-14.829,6.75-22.819,3.674
		c-3.696-1.422-7.517-4.548-9.503-7.941c-3.532-6.032,1.218-13.063,7.982-11.577c13.244,2.909,22.7-3.612,31.22-11.626
		c10.12-9.518,19.702-19.695,28.701-30.281c4.861-5.719,8.049-12.868,11.94-19.402c4.413-7.41,8.68-14.909,13.226-22.235
		C1034.952,221.001,1036.83,220.163,1039.921,217.74z"/>
</g>
</svg>
