<?xml version="1.0" encoding="utf-8"?>
<!-- Generator: Adobe Illustrator 16.0.1, SVG Export Plug-In . SVG Version: 6.00 Build 0)  -->
<!DOCTYPE svg PUBLIC "-//W3C//DTD SVG 1.1//EN" "http://www.w3.org/Graphics/SVG/1.1/DTD/svg11.dtd">
<svg version="1.1" id="Layer_1" xmlns="http://www.w3.org/2000/svg" xmlns:xlink="http://www.w3.org/1999/xlink" x="0px" y="0px"
	 width="158.961px" height="173.766px" viewBox="23.395 19.899 158.961 173.766"
	 enable-background="new 23.395 19.899 158.961 173.766" xml:space="preserve">
<g>
	
		<linearGradient id="SVGID_1_" gradientUnits="userSpaceOnUse" x1="501.1318" y1="670.5234" x2="613.7427" y2="670.5234" gradientTransform="matrix(1 0 0 1 -412 -575)">
		<stop  offset="0" style="stop-color:#390012"/>
		<stop  offset="0.5173" style="stop-color:#6E1C28"/>
		<stop  offset="0.9996" style="stop-color:#390012"/>
	</linearGradient>
	<path fill="url(#SVGID_1_)" d="M89.132,130.221c0,0,62.636-21.707,88.259-69.396c0,0,5.601,11.528,4.906,26.411
		c0,0-0.643,11.273-2.076,12.809c-0.688,0.736-2.615-6.697-3.623-5.699C165.477,105.352,135.02,130.5,89.132,130.221z"/>
	
		<linearGradient id="SVGID_2_" gradientUnits="userSpaceOnUse" x1="431.5938" y1="695.4434" x2="513.217" y2="719.5561" gradientTransform="matrix(1 0 0 1 -412 -575)">
		<stop  offset="0" style="stop-color:#390012"/>
		<stop  offset="0.5173" style="stop-color:#6E1C28"/>
		<stop  offset="0.9996" style="stop-color:#390012"/>
	</linearGradient>
	<path fill="url(#SVGID_2_)" d="M98.741,105.668c-24.556-6.764-43.062-5.696-43.062-5.696L66,119.9
		c-54.094,19.93-41.281,40.215-41.281,40.215c5.641-13,30.559-25.324,45.496-31.729c2.097,4.361,3.915,7.587,3.915,7.587
		s1.157-2.065,2.232-3.058c-0.827-2.067-1.405-3.226-2.479-6.117c3.834-1.547,7.775-2.981,7.775-2.981
		C103.367,114.918,98.741,105.668,98.741,105.668z M70.492,118.201l-4.137-8.977l21.354,2.848
		C87.709,112.072,74.79,116.301,70.492,118.201z"/>
	<g>
		<g>
			
				<linearGradient id="SVGID_3_" gradientUnits="userSpaceOnUse" x1="521.6426" y1="695.2295" x2="538.2422" y2="695.2295" gradientTransform="matrix(1 0 0 1 -412 -575)">
				<stop  offset="0" style="stop-color:#4F5153"/>
				<stop  offset="1" style="stop-color:#3E3E3F"/>
			</linearGradient>
			<path fill="url(#SVGID_3_)" d="M109.643,121.188c0.133,0.52,0.266,1.041,0.396,1.574c0.475,1.92,0.809,3.795,1.021,5.617
				l14.668-3.562c0.676-4.551,0.647-8.791,0.133-12.736L109.643,121.188z"/>
		</g>
	</g>
	<g>
		<g>
			
				<linearGradient id="SVGID_4_" gradientUnits="userSpaceOnUse" x1="544.126" y1="682.5029" x2="564.21" y2="682.5029" gradientTransform="matrix(1 0 0 1 -412 -575)">
				<stop  offset="0" style="stop-color:#4F5153"/>
				<stop  offset="1" style="stop-color:#3E3E3F"/>
			</linearGradient>
			<path fill="url(#SVGID_4_)" d="M133.624,106.986c0.335,5.79-0.337,11.051-1.498,15.646l15.681-7.129
				c1.36-3.172,1.825-5.211,1.825-5.211c2.058-6.381,2.745-12.362,2.545-17.918L133.624,106.986z"/>
		</g>
	</g>
	
		<linearGradient id="SVGID_5_" gradientUnits="userSpaceOnUse" x1="486.7305" y1="660.7686" x2="552.1073" y2="702.1448" gradientTransform="matrix(1 0 0 1 -412 -575)">
		<stop  offset="0" style="stop-color:#390012"/>
		<stop  offset="0.5173" style="stop-color:#6E1C28"/>
		<stop  offset="0.9996" style="stop-color:#390012"/>
	</linearGradient>
	<path fill="url(#SVGID_5_)" d="M102.468,48.806c0,0-1.747,14.484,10.837,34.277c6.166,9.695,16.1,24.104,11.957,44.383
		c0,0-2.107,18.453-21.124,31.433c0,0,10.987-15.498,5.899-36.137c-2.062-8.363-3.989-14.438-16.768-30.104
		c-2.469-3.028-7.295-8.141-8.486-13.121c-1.02-4.254,2.387-10.173,6.842-16.104L102.468,48.806z"/>
	
		<linearGradient id="SVGID_6_" gradientUnits="userSpaceOnUse" x1="511.4434" y1="641.0479" x2="574.5087" y2="674.5848" gradientTransform="matrix(1 0 0 1 -412 -575)">
		<stop  offset="0" style="stop-color:#390012"/>
		<stop  offset="0.5173" style="stop-color:#6E1C28"/>
		<stop  offset="0.9996" style="stop-color:#390012"/>
	</linearGradient>
	<path fill="url(#SVGID_6_)" d="M133.975,19.899c0,0-3.735,15.911,7.827,39.503c5.667,11.558,14.947,28.826,7.83,50.891
		c0,0-4.627,20.283-27.401,32.385c0,0,14.146-15.895,11.031-39.502c-1.264-9.567-2.658-16.569-14.947-35.588
		c-2.375-3.676-7.115-9.965-7.83-15.659c-0.605-4.861,3.916-11.032,9.609-17.083L133.975,19.899z"/>
	<g>
		<g>
			<path fill="#B08C5A" d="M144.984,53.094c-0.885,1.946-1.096,3.105-1.096,5.451l0.168,1.711l0.567-2.155
				c0.181-0.627,0.541-1.627,0.737-2.103c0.725-1.731,1.531-2.796,1.936-3.244c1.027-1.095,2.225-1.316,2.96-1.316
				c0.533,0.113,0.882,0.234,1.042,0.369c0.323,0.18,0.626,0.549,0.903,1.105c0.062,0.151,0.134,0.136,0.134,0.136
				c0.337-0.068,0.771-0.548,1.309-1.441c0.535-1.007,0.807-1.845,0.807-2.515c0-0.246-0.018-0.583-0.217-1.076
				c-0.234-0.578-0.424-0.873-0.781-1.164c-0.379-0.357-1.094-0.61-1.586-0.61c-0.736,0-1.605,0.198-2.5,0.913
				c-0.783,0.648-1.592,1.465-2.318,2.41C147.049,49.564,145.74,51.43,144.984,53.094z"/>
		</g>
		<g>
			<path fill="#B08C5A" d="M149.982,39.523l0.148,0.883l0.055,0.81c0,0.977-0.218,1.704-0.646,2.185
				c-0.432,0.479-0.975,0.72-1.629,0.72c-0.605,0-1.163-0.177-1.668-0.531c-0.453-0.353-0.79-0.892-1.012-1.616l-0.176-0.886
				l-0.052-0.859c0-0.606,0.103-1.226,0.304-1.857c0.203-0.632,0.59-1.294,1.162-1.984c0,1.501,0.059,2.536,0.178,3.11
				c0.199,1.197,0.58,1.795,1.137,1.795c0.269,0,0.57-0.116,0.908-0.354c0.168-0.117,0.363-0.294,0.58-0.531
				C149.494,40.171,149.73,39.876,149.982,39.523z"/>
		</g>
		<path fill="#B08C5A" d="M157.436,123.07l0.166,1.217l0.032,1.111c-0.044,1.316-0.378,2.297-0.999,2.947
			c-0.576,0.648-1.324,0.959-2.248,0.928c-0.853-0.027-1.604-0.32-2.256-0.873c-0.676-0.506-1.113-1.236-1.312-2.191l-0.174-1.045
			l-0.033-1.072c0.037-1.086,0.389-2.229,1.053-3.428c0.221-0.41,0.729-1.086,1.521-2.027c-0.074,2.213-0.086,3.633-0.037,4.256
			c0.129,1.646,0.552,2.48,1.267,2.502c0.321,0.014,0.717-0.152,1.178-0.498C156.052,124.555,156.667,123.947,157.436,123.07z"/>
		<g>
			<path fill="#B08C5A" d="M66.54,92.5l1.791-1.452c0.565-0.465,1.086-0.938,1.549-1.409c0.456-0.476,0.855-0.957,1.132-1.43
				c0.283-0.452,0.446-0.95,0.42-1.163c-0.007-0.046-0.015-0.071-0.021-0.032c-0.004,0.023-0.002,0.062,0.013,0.121
				c0.031,0.095,0.011,0.103,0.158,0.33c-0.139-0.172,0.076,0.122,0.062,0.091l-0.085-0.062c-0.082-0.06-0.203-0.138-0.328-0.216
				c-0.524-0.311-1.141-0.669-1.758-1.006c-1.238-0.687-2.513-1.43-3.74-2.211l2.143-1.085c-0.022,0.032-0.065,0.155-0.1,0.243
				c-0.035,0.099-0.069,0.199-0.1,0.304c-0.062,0.207-0.115,0.42-0.172,0.636c-0.1,0.432-0.179,0.875-0.224,1.33
				c-0.027,0.229-0.035,0.457-0.04,0.69c-0.006,0.234,0.009,0.469,0.022,0.712c0.018,0.243,0.052,0.489,0.111,0.734
				c0.029,0.266,0.134,0.494,0.195,0.774c-0.235-0.131-0.487-0.273-0.7-0.456c-0.222-0.18-0.416-0.387-0.607-0.607
				c-0.192-0.219-0.354-0.464-0.504-0.715c-0.153-0.253-0.276-0.519-0.391-0.791c-0.219-0.546-0.378-1.12-0.466-1.703
				c-0.049-0.292-0.078-0.586-0.09-0.885c-0.008-0.148-0.011-0.3-0.01-0.453c0.002-0.163,0.001-0.291,0.03-0.507l0.221-1.618
				l1.922,0.533c1.481,0.411,2.895,0.913,4.293,1.57c0.698,0.341,1.391,0.677,2.115,1.162c0.186,0.124,0.372,0.251,0.584,0.417
				c0.102,0.078,0.218,0.173,0.343,0.291c0.12,0.095,0.469,0.519,0.436,0.5c0.434,0.653,0.467,1.064,0.52,1.492
				c0.028,0.407-0.008,0.755-0.077,1.073c-0.297,1.252-0.945,2.059-1.622,2.721c-0.695,0.645-1.457,1.104-2.238,1.438
				c-0.782,0.33-1.583,0.535-2.382,0.645C68.146,92.607,67.333,92.614,66.54,92.5z"/>
		</g>
		<path fill="#B08C5A" d="M78.688,39.125c-0.444-1.058-1.357-3.264-1.554-3.983c-0.198-0.724-0.296-1.312-0.296-1.771
			c0-0.81,0.328-1.215,0.984-1.215c0.918,0,2.471,0.842,4.658,2.527l2.952,2.523l0.95-1.047l1.182-1.216
			c1.75-1.509,3.084-2.263,4.002-2.263c0.722,0,1.291,0.373,1.706,1.115c0.415,0.744,0.624,1.99,0.624,3.738
			c0,0.94-0.066,2.069-0.197,3.379C93.152,39.91,92.948,39.701,92.5,39c-0.448-0.7-0.858-1.256-1.229-1.674
			c-0.744-0.83-1.31-0.889-1.833-0.889c-0.723,0-1.349,0.344-1.743,1.742c-0.459,1.707-0.983,3.675-0.983,7.196l0.034,1.901
			l0.065,1.905l-0.788-3.546c-0.765-2.818-1.135-3.733-1.835-5.261c-1.071-2.341-2.131-3.512-3.182-3.512
			c-0.459,0-0.886,0.165-1.278,0.492C79.728,37.355,79.133,37.881,78.688,39.125z"/>
		<path fill="#B08C5A" d="M174.682,51.06c0,0-11.721,14.585-15.959,19.706c-0.32,0.387-2.6,0.914-2.6,0.914
			s9.209-12.019,15.845-19.786C172.26,51.552,174.682,51.06,174.682,51.06z"/>
		<path fill="#B08C5A" d="M110.932,30.56c0,0-11.721,14.585-15.958,19.706c-0.32,0.387-2.6,0.914-2.6,0.914
			s9.209-12.019,15.845-19.786C108.51,31.052,110.932,30.56,110.932,30.56z"/>
	</g>
</g>
<g>
	<path fill="#5D1B29" d="M37.893,178.174l0.102,0.102l0.151,1.595c0.025,0.178,1.012,1.694,3.644,1.694
		c2.402,0,3.971-1.418,3.971-3.998c0-4.855-9.233-1.922-9.233-7.942c0-3.312,3.162-4.832,6.375-4.832
		c1.214,0,2.657,0.151,3.846,0.812c-0.177,0.937-0.405,2.125-0.405,3.11H45.76l-0.101-0.103c-0.051-0.76-0.075-0.961-0.228-1.797
		c-0.784-0.557-1.568-1.139-3.441-1.139c-2.327,0-3.415,1.442-3.415,3.137c0,5.439,9.234,2.127,9.234,7.817
		c0,3.998-3.188,5.819-6.882,5.819c-0.455,0-2.605,0-3.946-0.986c0.253-0.835,0.278-1.721,0.405-3.289H37.893L37.893,178.174z"/>
	<path fill="#5D1B29" d="M77.707,179.768c0.658,1.619,0.784,1.695,2.125,1.797l0.102,0.103v0.479l-0.102,0.103
		c-0.658-0.024-2.023-0.103-2.936-0.103c-0.936,0-2.049,0.052-3.035,0.103l-0.102-0.103v-0.479l0.102-0.103
		c0.91-0.075,1.771-0.102,1.771-0.656c0-0.254-0.178-0.607-0.279-0.86l-1.645-4.325c-1.062-0.052-2.1-0.076-3.162-0.076
		s-2.125,0.024-3.188,0.076l-0.607,1.467c-0.43,1.014-1.239,3.037-1.34,3.744c0.252,0.48,0.531,0.531,1.846,0.633l0.102,0.103v0.479
		l-0.102,0.103c-1.34-0.076-1.871-0.103-2.428-0.103c-0.911,0-1.822,0.076-2.707,0.103l-0.102-0.103v-0.479l0.102-0.103
		c1.314-0.102,1.467-0.328,1.694-0.732c0.658-1.088,1.139-1.975,1.595-3.036l4.578-10.7c0.506-1.164,0.43-1.14,0.835-2.149h0.886
		c0.178,0.632,0.228,0.759,0.455,1.313L77.707,179.768z M67.764,174.684c0.962,0.024,1.898,0.074,2.859,0.074
		c0.91,0,1.847-0.05,2.758-0.074l-2.732-6.629L67.764,174.684z"/>
	<path fill="#5D1B29" d="M95.939,168.281c0-0.936-0.024-1.594-0.075-1.897c-0.051-0.278-0.431-0.53-0.506-0.557
		c-0.354-0.126-1.164-0.126-1.493-0.151l-0.101-0.102v-0.48l0.101-0.101c1.037,0.024,2.074,0.101,3.112,0.101
		c1.037,0,2.049-0.076,3.238-0.101l0.101,0.101v0.48l-0.101,0.102c-0.481,0.025-1.29,0.025-1.645,0.151
		c-0.076,0.024-0.456,0.278-0.506,0.557c-0.051,0.304-0.076,0.962-0.076,1.897v7.59c0,1.189,0.076,3.82,0.151,5.085
		c0.582,0.076,1.924,0.151,3.087,0.151c1.062,0,2.479-0.075,3.34-0.379c0.379-0.685,0.48-0.91,0.835-2.201h0.506l0.101,0.102
		c-0.151,0.86-0.303,2.125-0.303,3.314l-0.304,0.304c-1.948-0.076-3.922-0.103-5.869-0.103c-1.898,0-3.467,0.024-4.656,0.103
		l-0.101-0.103v-0.479l0.101-0.103c1.062-0.178,1.062-0.305,1.062-2.604L95.939,168.281L95.939,168.281z"/>
	<path fill="#5D1B29" d="M135.324,179.768c0.658,1.619,0.783,1.695,2.125,1.797l0.102,0.103v0.479l-0.102,0.103
		c-0.657-0.024-2.023-0.103-2.936-0.103c-0.937,0-2.05,0.052-3.035,0.103l-0.103-0.103v-0.479l0.103-0.103
		c0.91-0.075,1.771-0.102,1.771-0.656c0-0.254-0.177-0.607-0.278-0.86l-1.645-4.325c-1.062-0.052-2.1-0.076-3.162-0.076
		s-2.125,0.024-3.188,0.076l-0.607,1.467c-0.432,1.014-1.24,3.037-1.342,3.744c0.254,0.48,0.531,0.531,1.848,0.633l0.102,0.103
		v0.479l-0.102,0.103c-1.341-0.076-1.872-0.103-2.43-0.103c-0.91,0-1.82,0.076-2.707,0.103l-0.103-0.103v-0.479l0.103-0.103
		c1.316-0.102,1.469-0.328,1.695-0.732c0.656-1.088,1.139-1.975,1.594-3.036l4.58-10.7c0.506-1.164,0.43-1.14,0.834-2.149h0.886
		c0.178,0.632,0.229,0.759,0.456,1.313L135.324,179.768z M125.382,174.684c0.961,0.024,1.897,0.074,2.858,0.074
		c0.91,0,1.848-0.05,2.758-0.074l-2.732-6.629L125.382,174.684z"/>
	<path fill="#5D1B29" d="M153.659,167.445c0-1.088-0.228-1.771-1.442-1.771h-0.759l-0.103-0.102v-0.48l0.103-0.101
		c0.431,0.022,1.29,0.101,2.201,0.101c0.759,0,1.491-0.051,2.251-0.101c0.582,1.771,4.352,9.006,6.527,13.51
		c1.746-3.593,5.541-10.373,6.525-13.51c0.784,0.05,1.568,0.101,2.354,0.101c0.606,0,1.24-0.051,1.849-0.101l0.101,0.101v0.48
		l-0.101,0.102c-2.201,0-2.201,0.253-2.201,4.503v8.905c0,2.102,0,2.354,2.201,2.479l0.101,0.103v0.479l-0.101,0.103
		c-0.987-0.024-1.999-0.103-3.011-0.103c-1.062,0-2.125,0.076-3.112,0.103l-0.101-0.103v-0.479l0.101-0.103
		c1.948-0.229,1.948-0.582,1.948-5.162v-8.551h-0.051l-5.616,11.385c-0.404,0.836-1.037,2.201-1.29,3.062h-0.381
		c-0.354-0.984-0.582-1.693-1.264-3.062l-5.617-11.385h-0.051v2.43v7.92c0,3.188,0.581,3.363,2.049,3.363l0.103,0.103v0.479
		l-0.103,0.103c-0.859-0.024-1.744-0.103-2.604-0.103c-0.911,0-1.796,0.076-2.707,0.103l-0.103-0.103v-0.479l0.103-0.103
		c2.201,0,2.201-0.506,2.201-6.273V167.445L153.659,167.445z"/>
</g>
<g>
	<path fill="#B08C5A" d="M59.817,142.261c-0.884,1.945-1.095,3.105-1.095,5.451l0.167,1.711l0.569-2.155
		c0.18-0.627,0.541-1.627,0.739-2.103c0.723-1.731,1.531-2.797,1.934-3.244c1.027-1.096,2.224-1.315,2.96-1.315
		c0.533,0.112,0.881,0.233,1.042,0.369c0.323,0.18,0.626,0.549,0.903,1.104c0.062,0.149,0.134,0.135,0.134,0.135
		c0.337-0.067,0.771-0.547,1.308-1.44c0.535-1.006,0.806-1.844,0.806-2.515c0-0.245-0.017-0.584-0.217-1.075
		c-0.234-0.578-0.423-0.873-0.781-1.164c-0.379-0.356-1.093-0.608-1.586-0.608c-0.736,0-1.605,0.196-2.5,0.912
		c-0.783,0.647-1.592,1.465-2.318,2.409C61.882,138.73,60.573,140.598,59.817,142.261z"/>
</g>
<g>
	<path fill="#B08C5A" d="M37.125,187.68c0.396-0.082,0.963-0.128,1.503-0.128c0.837,0,1.378,0.153,1.756,0.495
		c0.306,0.271,0.477,0.686,0.477,1.152c0,0.802-0.504,1.333-1.143,1.549v0.027c0.468,0.162,0.747,0.594,0.891,1.225
		c0.198,0.846,0.343,1.432,0.469,1.665h-0.811c-0.099-0.171-0.234-0.692-0.405-1.449c-0.18-0.838-0.504-1.151-1.215-1.18h-0.738
		v2.629h-0.783L37.125,187.68L37.125,187.68z M37.908,190.441h0.801c0.837,0,1.368-0.459,1.368-1.151
		c0-0.783-0.566-1.126-1.396-1.136c-0.378,0-0.647,0.037-0.773,0.072V190.441z"/>
	<path fill="#B08C5A" d="M46.188,190.82H43.83v2.188h2.629v0.657h-3.412v-6.067h3.276v0.657H43.83v1.917h2.358V190.82z"/>
	<path fill="#B08C5A" d="M49.968,193.665l-1.98-6.067h0.846l0.945,2.988c0.262,0.818,0.486,1.559,0.648,2.27h0.019
		c0.171-0.703,0.423-1.467,0.692-2.26l1.026-2.998h0.838l-2.17,6.067H49.968L49.968,193.665z"/>
	<path fill="#B08C5A" d="M55.521,187.598v6.067h-0.783v-6.067H55.521z"/>
	<path fill="#B08C5A" d="M59.302,193.665l-1.98-6.067h0.846l0.945,2.988c0.262,0.818,0.486,1.559,0.648,2.27h0.019
		c0.171-0.703,0.423-1.467,0.692-2.26l1.026-2.998h0.838l-2.17,6.067H59.302L59.302,193.665z"/>
	<path fill="#B08C5A" d="M64.855,187.598v6.067h-0.783v-6.067H64.855z"/>
	<path fill="#B08C5A" d="M67.304,193.665v-6.067h0.854l1.945,3.069c0.45,0.711,0.801,1.351,1.089,1.972l0.019-0.009
		c-0.072-0.812-0.091-1.549-0.091-2.494v-2.538h0.738v6.067h-0.792l-1.927-3.079c-0.423-0.675-0.828-1.368-1.134-2.025l-0.027,0.01
		c0.045,0.767,0.063,1.494,0.063,2.504v2.593L67.304,193.665L67.304,193.665z"/>
	<path fill="#B08C5A" d="M78.923,193.395c-0.352,0.127-1.045,0.334-1.863,0.334c-0.919,0-1.675-0.232-2.27-0.802
		c-0.521-0.504-0.846-1.312-0.846-2.26c0.009-1.81,1.251-3.133,3.286-3.133c0.702,0,1.251,0.153,1.512,0.278l-0.188,0.64
		c-0.324-0.144-0.729-0.261-1.342-0.261c-1.477,0-2.439,0.918-2.439,2.438c0,1.54,0.928,2.449,2.341,2.449
		c0.513,0,0.864-0.072,1.044-0.162v-1.811h-1.233v-0.631h1.999L78.923,193.395L78.923,193.395z"/>
	<path fill="#B08C5A" d="M84.97,188.264h-1.846v-0.666h4.492v0.666h-1.854v5.401H84.97V188.264z"/>
	<path fill="#B08C5A" d="M90.153,187.598v2.538h2.935v-2.538h0.792v6.067h-0.792v-2.845h-2.935v2.845H89.37v-6.067H90.153z"/>
	<path fill="#B08C5A" d="M99.46,190.82h-2.358v2.188h2.629v0.657h-3.412v-6.067h3.276v0.657h-2.493v1.917h2.358V190.82z"/>
	<path fill="#B08C5A" d="M105.795,191.757l-0.63,1.908h-0.811l2.062-6.067h0.945l2.07,6.067h-0.839l-0.647-1.908H105.795z
		 M107.785,191.145l-0.596-1.746c-0.135-0.396-0.226-0.756-0.313-1.106h-0.019c-0.09,0.358-0.188,0.729-0.308,1.101l-0.595,1.756
		h1.829L107.785,191.145L107.785,191.145z"/>
	<path fill="#B08C5A" d="M111.402,187.68c0.396-0.082,0.963-0.128,1.502-0.128c0.838,0,1.379,0.153,1.757,0.495
		c0.306,0.271,0.478,0.686,0.478,1.152c0,0.802-0.505,1.333-1.144,1.549v0.027c0.468,0.162,0.747,0.594,0.892,1.225
		c0.197,0.846,0.342,1.432,0.469,1.665h-0.812c-0.099-0.171-0.233-0.692-0.405-1.449c-0.18-0.838-0.504-1.151-1.215-1.18h-0.738
		v2.629h-0.783V187.68L111.402,187.68z M112.186,190.441h0.801c0.839,0,1.369-0.459,1.369-1.151c0-0.783-0.565-1.126-1.396-1.136
		c-0.378,0-0.646,0.037-0.772,0.072v2.215H112.186z"/>
	<path fill="#B08C5A" d="M118.35,191.757l-0.629,1.908h-0.812l2.062-6.067h0.945l2.07,6.067h-0.838l-0.647-1.908H118.35z
		 M120.34,191.145l-0.595-1.746c-0.136-0.396-0.226-0.756-0.313-1.106h-0.02c-0.09,0.358-0.188,0.729-0.307,1.101l-0.594,1.756
		h1.827L120.34,191.145L120.34,191.145z"/>
	<path fill="#B08C5A" d="M123.957,187.68c0.342-0.072,0.882-0.128,1.432-0.128c0.782,0,1.287,0.136,1.666,0.441
		c0.314,0.233,0.504,0.595,0.504,1.071c0,0.584-0.388,1.099-1.025,1.332v0.019c0.574,0.146,1.252,0.621,1.252,1.521
		c0,0.522-0.207,0.918-0.516,1.217c-0.422,0.388-1.105,0.565-2.098,0.565c-0.54,0-0.954-0.036-1.215-0.071V187.68z M124.74,190.163
		h0.711c0.828,0,1.314-0.433,1.314-1.019c0-0.711-0.541-0.99-1.332-0.99c-0.36,0-0.567,0.027-0.693,0.055V190.163z M124.74,193.07
		c0.152,0.027,0.378,0.035,0.656,0.035c0.811,0,1.558-0.297,1.558-1.18c0-0.826-0.711-1.171-1.565-1.171h-0.646L124.74,193.07
		L124.74,193.07z"/>
	<path fill="#B08C5A" d="M137.145,193.467c-0.289,0.145-0.865,0.288-1.604,0.288c-1.711,0-2.998-1.08-2.998-3.069
		c0-1.898,1.287-3.188,3.169-3.188c0.756,0,1.233,0.162,1.44,0.271l-0.189,0.639c-0.297-0.145-0.72-0.252-1.224-0.252
		c-1.423,0-2.368,0.908-2.368,2.503c0,1.485,0.855,2.438,2.332,2.438c0.477,0,0.963-0.1,1.277-0.252L137.145,193.467z"/>
	<path fill="#B08C5A" d="M139.984,187.598v3.592c0,1.359,0.604,1.938,1.414,1.938c0.898,0,1.477-0.595,1.477-1.938v-3.592h0.792
		v3.538c0,1.863-0.981,2.628-2.296,2.628c-1.242,0-2.18-0.711-2.18-2.593v-3.573H139.984z"/>
	<path fill="#B08C5A" d="M146.105,187.598h0.783v5.41h2.592v0.657h-3.375V187.598z"/>
	<path fill="#B08C5A" d="M151.794,188.264h-1.846v-0.666h4.491v0.666h-1.854v5.401h-0.792L151.794,188.264L151.794,188.264z"/>
	<path fill="#B08C5A" d="M156.979,187.598v3.592c0,1.359,0.604,1.938,1.412,1.938c0.9,0,1.479-0.595,1.479-1.938v-3.592h0.792v3.538
		c0,1.863-0.979,2.628-2.297,2.628c-1.241,0-2.179-0.711-2.179-2.593v-3.573H156.979z"/>
	<path fill="#B08C5A" d="M163.098,187.68c0.396-0.082,0.963-0.128,1.504-0.128c0.836,0,1.377,0.153,1.756,0.495
		c0.307,0.271,0.478,0.686,0.478,1.152c0,0.802-0.504,1.333-1.144,1.549v0.027c0.469,0.162,0.746,0.594,0.892,1.225
		c0.196,0.846,0.343,1.432,0.469,1.665h-0.811c-0.101-0.171-0.234-0.692-0.405-1.449c-0.182-0.838-0.504-1.151-1.215-1.18h-0.738
		v2.629H163.1v-5.985H163.098L163.098,187.68z M163.881,190.441h0.801c0.838,0,1.368-0.459,1.368-1.151
		c0-0.783-0.565-1.126-1.396-1.136c-0.379,0-0.647,0.037-0.773,0.072V190.441z"/>
	<path fill="#B08C5A" d="M172.161,190.82h-2.358v2.188h2.629v0.657h-3.412v-6.067h3.276v0.657h-2.493v1.917h2.358V190.82z"/>
</g>
</svg>
