<?xml version="1.0" encoding="utf-8"?>
<!-- Generator: Adobe Illustrator 16.0.1, SVG Export Plug-In . SVG Version: 6.00 Build 0)  -->
<!DOCTYPE svg PUBLIC "-//W3C//DTD SVG 1.1//EN" "http://www.w3.org/Graphics/SVG/1.1/DTD/svg11.dtd">
<svg version="1.1" id="Layer_1" xmlns="http://www.w3.org/2000/svg" xmlns:xlink="http://www.w3.org/1999/xlink" x="0px" y="0px"
	 width="158.961px" height="140.219px" viewBox="0 0 158.961 140.219" enable-background="new 0 0 158.961 140.219"
	 xml:space="preserve">
<g>
	
		<linearGradient id="SVGID_1_" gradientUnits="userSpaceOnUse" x1="-17.0132" y1="1650.094" x2="95.5993" y2="1650.094" gradientTransform="matrix(1 0 0 1 82.75 -1574.4688)">
		<stop  offset="0" style="stop-color:#131313"/>
		<stop  offset="0.5173" style="stop-color:#363636"/>
		<stop  offset="0.9996" style="stop-color:#131313"/>
	</linearGradient>
	<path fill="url(#SVGID_1_)" d="M65.737,110.323c0,0,62.637-21.707,88.258-69.396c0,0,5.601,11.528,4.907,26.411
		c0,0-0.646,11.271-2.075,12.809c-0.688,0.736-2.615-6.693-3.623-5.695C142.081,85.453,111.625,110.601,65.737,110.323z"/>
	
		<linearGradient id="SVGID_2_" gradientUnits="userSpaceOnUse" x1="-86.5474" y1="1675.0149" x2="-4.9267" y2="1699.1268" gradientTransform="matrix(1 0 0 1 82.75 -1574.4688)">
		<stop  offset="0" style="stop-color:#131313"/>
		<stop  offset="0.5173" style="stop-color:#363636"/>
		<stop  offset="0.9996" style="stop-color:#131313"/>
	</linearGradient>
	<path fill="url(#SVGID_2_)" d="M75.347,85.769c-24.556-6.764-43.062-5.692-43.062-5.692l10.32,19.928
		c-54.094,19.93-41.281,40.215-41.281,40.215c5.641-13,30.559-25.324,45.496-31.729c2.097,4.359,3.915,7.588,3.915,7.588
		s1.157-2.066,2.232-3.061c-0.827-2.064-1.405-3.225-2.479-6.117c3.834-1.547,7.775-2.979,7.775-2.979
		C79.973,95.019,75.347,85.769,75.347,85.769z M47.098,98.302l-4.137-8.977l21.354,2.848C64.314,92.173,51.396,96.402,47.098,98.302
		z"/>
	<g>
		<g>
			
				<linearGradient id="SVGID_3_" gradientUnits="userSpaceOnUse" x1="3.499" y1="1674.7952" x2="20.0981" y2="1674.7952" gradientTransform="matrix(1 0 0 1 82.75 -1574.4688)">
				<stop  offset="0" style="stop-color:#515151"/>
				<stop  offset="1" style="stop-color:#3E3E3E"/>
			</linearGradient>
			<path fill="url(#SVGID_3_)" d="M86.249,101.289c0.133,0.518,0.265,1.041,0.396,1.57c0.475,1.924,0.809,3.799,1.022,5.617
				l14.668-3.562c0.677-4.551,0.646-8.791,0.133-12.738L86.249,101.289z"/>
		</g>
	</g>
	<g>
		<g>
			
				<linearGradient id="SVGID_4_" gradientUnits="userSpaceOnUse" x1="25.9805" y1="1662.0725" x2="46.0669" y2="1662.0725" gradientTransform="matrix(1 0 0 1 82.75 -1574.4688)">
				<stop  offset="0" style="stop-color:#515151"/>
				<stop  offset="1" style="stop-color:#3E3E3E"/>
			</linearGradient>
			<path fill="url(#SVGID_4_)" d="M110.229,87.087c0.336,5.789-0.336,11.051-1.498,15.646l15.683-7.129
				c1.358-3.172,1.823-5.211,1.823-5.211c2.062-6.381,2.746-12.358,2.548-17.918L110.229,87.087z"/>
		</g>
	</g>
	
		<linearGradient id="SVGID_5_" gradientUnits="userSpaceOnUse" x1="-31.416" y1="1640.3381" x2="33.9602" y2="1681.714" gradientTransform="matrix(1 0 0 1 82.75 -1574.4688)">
		<stop  offset="0" style="stop-color:#131313"/>
		<stop  offset="0.5173" style="stop-color:#363636"/>
		<stop  offset="0.9996" style="stop-color:#131313"/>
	</linearGradient>
	<path fill="url(#SVGID_5_)" d="M79.073,28.907c0,0-1.747,14.48,10.835,34.273c6.166,9.695,16.102,24.104,11.959,44.383
		c0,0-2.107,18.453-21.125,31.436c0,0,10.986-15.498,5.898-36.141c-2.062-8.359-3.988-14.438-16.77-30.104
		c-2.469-3.028-7.295-8.141-8.486-13.121c-1.02-4.254,2.387-10.173,6.842-16.104L79.073,28.907z"/>
	
		<linearGradient id="SVGID_6_" gradientUnits="userSpaceOnUse" x1="-6.7007" y1="1620.6194" x2="56.3645" y2="1654.1562" gradientTransform="matrix(1 0 0 1 82.75 -1574.4688)">
		<stop  offset="0" style="stop-color:#131313"/>
		<stop  offset="0.5173" style="stop-color:#363636"/>
		<stop  offset="0.9996" style="stop-color:#131313"/>
	</linearGradient>
	<path fill="url(#SVGID_6_)" d="M110.579,0c0,0-3.736,15.911,7.828,39.503c5.668,11.558,14.946,28.826,7.829,50.891
		c0,0-4.627,20.283-27.401,32.385c0,0,14.146-15.895,11.033-39.502c-1.265-9.563-2.658-16.565-14.949-35.588
		c-2.373-3.676-7.114-9.965-7.828-15.659C86.484,27.171,91.005,21,96.7,14.949L110.579,0z"/>
	<g>
		<g>
			<path fill="#919191" d="M121.59,33.195c-0.885,1.946-1.096,3.105-1.096,5.451l0.168,1.711l0.568-2.151
				c0.18-0.627,0.541-1.627,0.736-2.104c0.725-1.729,1.53-2.796,1.936-3.244c1.027-1.095,2.225-1.312,2.961-1.312
				c0.533,0.109,0.881,0.23,1.043,0.369c0.322,0.18,0.625,0.549,0.902,1.104c0.062,0.151,0.133,0.136,0.133,0.136
				c0.338-0.064,0.771-0.548,1.309-1.438c0.535-1.007,0.807-1.847,0.807-2.518c0-0.243-0.018-0.583-0.217-1.073
				c-0.234-0.578-0.424-0.873-0.781-1.164c-0.379-0.357-1.094-0.61-1.586-0.61c-0.736,0-1.604,0.198-2.5,0.913
				c-0.783,0.646-1.592,1.465-2.318,2.41C123.654,29.666,122.346,31.531,121.59,33.195z"/>
		</g>
		<g>
			<path fill="#919191" d="M126.588,19.624l0.148,0.883l0.055,0.81c0,0.979-0.217,1.704-0.646,2.188
				c-0.431,0.479-0.974,0.72-1.629,0.72c-0.604,0-1.162-0.177-1.668-0.531c-0.453-0.353-0.789-0.892-1.011-1.612l-0.176-0.89
				l-0.052-0.855c0-0.606,0.103-1.229,0.304-1.857c0.203-0.632,0.59-1.294,1.162-1.98c0,1.501,0.059,2.533,0.178,3.106
				c0.199,1.197,0.58,1.795,1.136,1.795c0.271,0,0.571-0.113,0.909-0.354c0.168-0.117,0.363-0.294,0.58-0.531
				C126.1,20.272,126.336,19.978,126.588,19.624z"/>
		</g>
		<path fill="#919191" d="M134.04,103.171l0.166,1.217l0.032,1.111c-0.043,1.314-0.377,2.297-0.997,2.943
			c-0.576,0.65-1.324,0.961-2.248,0.932c-0.854-0.027-1.604-0.32-2.257-0.873c-0.676-0.506-1.112-1.236-1.313-2.191l-0.172-1.045
			l-0.033-1.072c0.035-1.086,0.388-2.229,1.052-3.428c0.223-0.41,0.729-1.086,1.521-2.027c-0.074,2.217-0.088,3.637-0.039,4.26
			c0.129,1.646,0.555,2.479,1.27,2.502c0.32,0.012,0.717-0.154,1.179-0.498C132.657,104.656,133.271,104.048,134.04,103.171z"/>
		<g>
			<path fill="#919191" d="M43.146,72.601l1.791-1.452c0.565-0.465,1.086-0.938,1.549-1.405c0.456-0.479,0.855-0.957,1.132-1.434
				c0.283-0.452,0.446-0.95,0.42-1.163c-0.007-0.046-0.015-0.067-0.021-0.028c-0.004,0.021-0.002,0.062,0.013,0.117
				c0.031,0.099,0.011,0.104,0.158,0.33c-0.139-0.172,0.076,0.122,0.062,0.095l-0.085-0.062c-0.082-0.06-0.203-0.138-0.328-0.216
				c-0.524-0.312-1.141-0.669-1.758-1.006c-1.238-0.688-2.513-1.434-3.74-2.211l2.143-1.085c-0.022,0.028-0.065,0.151-0.1,0.239
				c-0.035,0.103-0.069,0.199-0.1,0.308c-0.062,0.207-0.115,0.42-0.172,0.636c-0.1,0.432-0.179,0.875-0.224,1.33
				c-0.027,0.229-0.035,0.457-0.04,0.69c-0.006,0.23,0.009,0.469,0.022,0.712c0.018,0.239,0.052,0.485,0.111,0.73
				c0.029,0.27,0.134,0.494,0.195,0.774c-0.235-0.131-0.487-0.273-0.7-0.456c-0.222-0.18-0.416-0.387-0.607-0.607
				c-0.192-0.219-0.354-0.464-0.504-0.715c-0.153-0.253-0.276-0.519-0.391-0.791c-0.219-0.546-0.378-1.12-0.466-1.703
				c-0.049-0.292-0.078-0.586-0.09-0.885c-0.008-0.148-0.011-0.3-0.01-0.453c0.002-0.163,0.001-0.291,0.03-0.507l0.221-1.618
				l1.922,0.533c1.481,0.411,2.895,0.913,4.293,1.57c0.698,0.341,1.391,0.677,2.115,1.162c0.186,0.12,0.372,0.251,0.584,0.417
				c0.102,0.074,0.218,0.173,0.343,0.289c0.12,0.097,0.469,0.521,0.436,0.5c0.434,0.651,0.467,1.062,0.52,1.49
				c0.028,0.407-0.008,0.755-0.077,1.073c-0.297,1.252-0.945,2.059-1.622,2.721c-0.695,0.646-1.457,1.104-2.238,1.438
				c-0.782,0.33-1.583,0.535-2.382,0.645C44.752,72.708,43.938,72.715,43.146,72.601z"/>
		</g>
		<path fill="#919191" d="M55.293,19.226c-0.444-1.058-1.357-3.264-1.554-3.979c-0.198-0.728-0.296-1.312-0.296-1.771
			c0-0.81,0.328-1.215,0.984-1.215c0.918,0,2.471,0.842,4.658,2.527l2.952,2.521l0.95-1.047l1.182-1.216
			c1.75-1.509,3.084-2.263,4.002-2.263c0.722,0,1.291,0.369,1.706,1.111c0.415,0.744,0.624,1.99,0.624,3.738
			c0,0.938-0.066,2.069-0.197,3.379c-0.547-1.004-0.751-1.212-1.199-1.914c-0.448-0.7-0.858-1.256-1.229-1.674
			c-0.744-0.83-1.31-0.889-1.833-0.889c-0.723,0-1.349,0.344-1.743,1.738c-0.459,1.707-0.983,3.679-0.983,7.196l0.034,1.901
			l0.065,1.902l-0.788-3.547c-0.765-2.814-1.135-3.729-1.835-5.261c-1.071-2.341-2.131-3.512-3.182-3.512
			c-0.459,0-0.886,0.165-1.278,0.49C56.333,17.457,55.738,17.982,55.293,19.226z"/>
		<path fill="#919191" d="M151.286,31.161c0,0-11.72,14.585-15.957,19.706c-0.32,0.387-2.601,0.914-2.601,0.914
			s9.209-12.021,15.845-19.786C148.866,31.653,151.286,31.161,151.286,31.161z"/>
		<path fill="#919191" d="M87.536,10.661c0,0-11.72,14.585-15.958,19.706c-0.32,0.387-2.6,0.914-2.6,0.914
			s9.209-12.021,15.845-19.786C85.116,11.153,87.536,10.661,87.536,10.661z"/>
	</g>
</g>
<g>
	<path fill="#919191" d="M36.423,122.362c-0.884,1.945-1.095,3.105-1.095,5.451l0.167,1.711l0.569-2.152
		c0.18-0.627,0.541-1.627,0.739-2.104c0.723-1.729,1.531-2.797,1.934-3.244c1.027-1.096,2.224-1.312,2.96-1.312
		c0.533,0.109,0.881,0.23,1.042,0.369c0.323,0.18,0.626,0.549,0.903,1.104c0.062,0.15,0.134,0.135,0.134,0.135
		c0.337-0.064,0.771-0.547,1.308-1.438c0.535-1.006,0.806-1.844,0.806-2.518c0-0.242-0.017-0.584-0.217-1.072
		c-0.234-0.578-0.423-0.873-0.781-1.164c-0.379-0.357-1.093-0.609-1.586-0.609c-0.736,0-1.605,0.197-2.5,0.912
		c-0.783,0.648-1.592,1.465-2.318,2.41C38.487,118.833,37.179,120.698,36.423,122.362z"/>
</g>
</svg>
